<svg width="273" height="60" viewBox="0 0 273 60" fill="none" xmlns="http://www.w3.org/2000/svg">
    <path d="M194.053 16.1188C194.053 16.6153 193.904 17.1524 193.604 17.7321C193.192 18.4499 192.648 18.8075 191.973 18.8075C190.923 18.8075 190.193 18.2833 189.78 17.2357C189.292 18.5866 188.393 19.2625 187.081 19.2625C186.594 19.2625 186.163 19.0831 185.788 18.7242C185.374 18.2833 185.169 17.718 185.169 17.0289V15.3741C185.169 15.2361 185.037 15.14 184.776 15.084C184.512 15.0294 184.381 14.8918 184.381 14.6709C184.381 14.312 184.606 13.9531 185.056 13.5955C185.431 13.2917 185.712 13.1405 185.901 13.1405C186.163 13.1405 186.293 13.4981 186.293 14.2159C186.293 14.6017 186.256 14.9255 186.181 15.1883C186.106 15.4506 186.069 15.6638 186.069 15.8292C186.069 16.2423 186.181 16.6153 186.406 16.946C186.631 17.3592 186.949 17.5672 187.362 17.5672C187.85 17.5672 188.308 17.4006 188.739 17.0703C189.17 16.7392 189.386 16.3671 189.386 15.9539C189.386 15.7053 189.284 15.2712 189.077 14.65C188.871 14.03 188.767 13.6361 188.767 13.4708C188.767 13.3332 188.861 13.12 189.048 12.8299C189.236 12.5402 189.368 12.3958 189.442 12.3958C189.63 12.3958 189.845 12.8094 190.089 13.6361C190.333 14.4641 190.455 15.0712 190.455 15.457C190.455 16.588 191.055 17.1524 192.254 17.1524C192.779 17.1524 193.099 16.9601 193.21 16.5739C192.198 15.278 191.692 14.2714 191.692 13.5541C191.692 13.1678 191.823 12.8094 192.086 12.4787C192.274 12.2578 192.404 12.1476 192.48 12.1476C192.555 12.1476 192.611 12.2851 192.648 12.5607C192.685 12.9196 192.761 13.2238 192.872 13.4708C192.911 13.4981 193.173 13.9676 193.661 14.8777C193.922 15.4015 194.053 15.8146 194.053 16.1188Z" fill="#18273D"/>
    <path d="M247.319 17.4404C247.319 17.7433 246.831 18.3906 245.857 19.3839C244.732 20.5422 243.664 21.383 242.651 21.9072C242.014 22.2384 239.895 22.7626 236.297 23.4787C235.622 23.562 235.284 23.6034 235.284 23.6034C235.358 23.5479 235.602 23.4099 236.016 23.1903C236.465 22.9143 237.758 22.3764 239.895 21.577C241.883 20.7763 243.044 20.2666 243.381 20.0457C243.458 19.991 243.495 19.9351 243.495 19.8804C243.495 19.5488 241.695 19.3839 238.096 19.3839C238.096 19.3839 237.421 19.398 236.072 19.4254C235.358 19.4527 235.004 19.4254 235.004 19.342C235.004 19.2874 235.097 19.1498 235.284 18.9289L236.578 17.357C236.953 16.8879 237.646 16.5978 238.658 16.4876C238.995 16.4329 239.821 16.4056 241.133 16.4056C245.256 16.4056 247.319 16.7499 247.319 17.4404Z" fill="#18273D"/>
    <path d="M256.253 54.7503C261.314 53.3994 266.713 51.9514 272.449 50.4069C272.749 50.324 272.917 50.2967 272.955 50.324C273.03 50.3796 273.011 50.5035 272.899 50.6966C272.562 51.2755 272.299 51.6203 272.111 51.731C267.312 52.999 261.708 54.6128 255.297 56.5709C255.523 56.0193 255.841 55.4126 256.253 54.7503Z" fill="#18273D"/>
    <path d="M265.849 33.0947C265.849 32.7085 265.418 31.895 264.555 30.6539C263.469 29.082 262.7 27.7862 262.25 26.7655C261.313 24.6972 260.694 22.7668 260.394 20.9741C260.244 20.2567 260.15 19.8291 260.113 19.6911C259.962 19.3048 259.701 18.9331 259.326 18.5742C259.588 17.9402 260 17.0716 260.564 15.968C260.751 15.6378 260.918 15.4716 261.069 15.4716C261.182 15.4716 261.388 15.6378 261.687 15.968C263.15 17.4305 264.368 18.7537 265.343 19.9393C265.755 20.4084 265.962 20.7532 265.962 20.9741C265.962 21.1121 265.868 21.1809 265.681 21.1809C265.343 21.1809 264.686 20.96 263.713 20.5191C263.637 20.5191 263.562 20.5605 263.488 20.6426C263.825 21.5253 264.368 22.7395 265.118 24.284C266.729 27.7302 267.537 30.2403 267.537 31.8121C267.537 33.1909 267.086 34.5841 266.186 35.9902C265.015 37.6894 263.477 38.6075 261.576 38.7438V38.8032C258.839 38.8032 256.87 37.5206 255.672 34.9558C255.522 34.5974 255.352 34.5974 255.165 34.9558C253.59 37.9069 251.36 39.3821 248.473 39.3821C245.548 39.3821 243.825 38.0312 243.3 35.328C243.261 35.1075 243.206 34.9973 243.131 34.9973C243.093 34.9973 242.98 35.1075 242.793 35.328C242.08 36.1833 241.068 37.0519 239.757 37.9342C237.546 39.3685 235.371 40.0858 233.233 40.0858C231.771 40.0858 230.516 39.603 229.466 38.6375C228.903 38.1136 228.228 37.2173 227.441 35.9488C226.842 35.011 226.354 34.5423 225.978 34.5423C225.305 34.5423 224.292 35.0665 222.942 36.1145C221.48 37.2173 220.749 38.1688 220.749 38.9686C220.749 39.6582 221.18 40.3477 222.043 41.0369L222.04 41.0668C224.491 40.4678 226.482 40.1683 228.009 40.1683C229.584 40.1683 230.821 40.6511 231.72 41.6162C232.621 42.5814 233.071 43.8503 233.071 45.4222C233.071 46.7185 232.686 47.787 231.918 48.6283C231.149 49.4691 230.128 49.8899 228.852 49.8899C226.004 49.8899 223.416 48.2903 221.092 45.0911C218.131 45.946 214.718 47.4905 210.857 49.7242C208.046 51.4344 205.234 53.1302 202.422 54.8123C200.323 55.971 198.431 56.5499 196.743 56.5499C194.906 56.5499 193.313 55.9573 191.963 54.7713C190.538 53.5023 189.826 51.9723 189.826 50.1796C189.826 47.6973 191.213 44.4566 193.988 40.458C194.288 40.044 194.513 39.8376 194.663 39.8376C194.737 39.8376 194.776 39.8927 194.776 40.0029C194.776 40.3892 194.175 41.7816 192.975 44.181C191.775 46.5805 191.176 48.4556 191.176 49.807C191.176 50.8824 191.514 51.7378 192.189 52.3718C192.938 53.0614 193.931 53.4062 195.168 53.4062C197.231 53.4062 199.18 52.9097 201.017 51.9168C203.266 50.483 205.515 49.0628 207.764 47.6558C212.182 44.9257 216.084 42.9792 219.472 41.8162C219.051 40.8639 218.877 40.0803 218.95 39.465C219.287 37.0105 220.412 34.8456 222.324 32.9704C224.048 31.3152 225.642 30.4881 227.104 30.4881C227.666 30.4881 228.247 30.9709 228.847 31.936C229.747 33.3425 230.366 34.2248 230.702 34.5837C231.677 35.5211 232.859 35.9902 234.245 35.9902C236.494 35.9902 238.65 35.3972 240.713 34.2111C240.9 34.1009 241.743 33.4669 243.243 32.3082C244.631 31.205 245.38 30.6539 245.493 30.6539C245.792 30.6539 245.848 30.9021 245.661 31.3986C245.361 32.0326 245.21 32.4325 245.21 32.5979C245.21 33.0665 245.473 33.5908 245.998 34.1697C246.673 34.9695 247.592 35.3698 248.755 35.3698C251.754 35.3698 254.322 33.7839 256.458 30.6124C256.684 30.2817 256.946 30.116 257.245 30.116C257.471 30.116 257.582 30.2672 257.582 30.5706C257.582 30.6539 257.564 30.8188 257.527 31.067C257.488 31.3152 257.471 31.4947 257.471 31.6049C257.471 32.5427 257.854 33.3011 258.623 33.8805C259.282 34.3761 260.097 34.6593 261.069 34.7311V34.708C263.656 34.708 265.25 34.1701 265.849 33.0947ZM229.471 45.9601C230.259 45.9601 230.653 45.7806 230.653 45.4222C230.653 44.9808 230.202 44.636 229.303 44.3878C228.253 44.0567 226.809 44.0016 224.973 44.2225C226.359 45.3807 227.859 45.9601 229.471 45.9601Z" fill="#18273D"/>
    <path d="M259.533 47.9506C259.458 47.8955 259.458 47.8126 259.533 47.7024L261.332 45.0552C261.445 44.8894 261.558 44.8069 261.669 44.8069C261.858 44.8069 262.645 45.1581 264.032 45.8618C265.419 46.5651 266.112 46.9855 266.112 47.1235C266.112 47.5644 265.495 48.5022 264.257 49.9361C264.106 50.1292 263.956 50.1843 263.807 50.1018C262.457 49.3298 261.033 48.6124 259.533 47.9506Z" fill="#18273D"/>
    <path d="M208.877 6.86804C208.877 5.57176 208.594 4.50962 208.032 3.68289C208.032 3.21377 208.539 2.09694 209.552 0.331546C209.7 0.110658 209.814 0 209.888 0C210.001 0 210.132 0.110658 210.282 0.331546C210.582 0.799811 211.257 2.0696 212.306 4.13663C213.431 6.28826 214.088 7.61145 214.276 8.10834C214.426 8.49415 214.5 8.78425 214.5 8.9778C214.5 9.55629 213.712 9.1974 212.137 7.90156C211.95 7.70887 211.856 7.7909 211.856 8.14979C211.856 8.26045 212.259 11.5896 213.065 19.7522C213.871 27.9152 214.276 32.5069 214.276 33.5276C214.276 36.6717 213.671 39.4398 212.362 41.8013C212.097 42.2811 211.839 42.6147 211.688 42.8356C211.425 43.1663 211.29 43.2197 211.238 43.001C211.178 42.751 211.17 42.2409 211.295 41.4706C211.468 40.3939 211.576 39.1399 211.576 37.7056C211.576 36.4094 211.125 31.0935 210.225 21.7585C209.327 12.4231 208.877 7.99769 208.877 6.86804Z" fill="#18273D"/>
    <path d="M202.589 31.2926C201.651 29.2243 201.013 27.294 200.677 25.5013C200.564 24.7835 200.47 24.343 200.396 24.1777C200.283 23.8192 200.039 23.4603 199.664 23.1014C199.926 22.4669 200.34 21.5988 200.901 20.4952C201.052 20.1649 201.2 19.9996 201.351 19.9996C201.501 19.9996 201.745 20.1649 202.082 20.4952C203.507 21.9572 204.706 23.2809 205.682 24.4665C206.093 24.9356 206.3 25.2804 206.3 25.5013C206.3 25.6388 206.206 25.7081 206.019 25.7081C205.682 25.7081 205.026 25.4872 204.05 25.0463C203.975 25.0463 203.9 25.0877 203.826 25.171C204.164 26.0524 204.706 27.2654 205.457 28.8108C207.106 32.2578 207.931 34.7675 207.931 36.3397C207.931 37.9116 207.594 39.2903 206.919 40.4759C205.869 42.4345 204.031 43.4133 201.407 43.4133C198.633 43.4133 196.44 42.5306 194.828 40.7656C193.852 39.7176 192.991 38.1321 192.24 36.0082C191.903 38.1321 190.986 39.9658 189.486 41.5103C187.611 43.3855 185.212 44.3233 182.288 44.3233C179.102 44.3233 176.872 43.2065 175.596 40.9724C174.884 39.7039 174.527 38.2149 174.527 36.5047C174.527 34.2437 174.884 32.1339 175.596 30.1754C175.82 29.652 175.933 29.3064 175.933 29.1414C175.933 29.0308 175.896 28.9761 175.82 28.9761C175.672 28.9761 175.371 29.2376 174.921 29.7627C174.209 30.5894 173.459 32.2578 172.671 34.7675C171.66 38.0218 170.985 39.9795 170.648 40.6417C170.234 41.5795 169.654 42.3375 168.904 42.9173C168.267 43.3582 167.723 43.5786 167.274 43.5786C165.212 43.5786 163.618 42.6276 162.494 40.7242C161.594 39.1523 161.144 37.2357 161.144 34.9747C161.144 33.4024 161.481 31.6925 162.156 29.8447C162.269 29.4311 162.4 29.1269 162.55 28.9347C162.775 28.6591 162.923 28.6172 162.999 28.8108C163.074 29.0308 163.037 29.417 162.886 29.969C162.512 31.3755 162.325 32.6577 162.325 33.816C162.325 38.3662 163.618 40.6417 166.205 40.6417C167.329 40.6417 168.267 40.035 169.016 38.8216C169.467 38.0492 170.01 36.588 170.648 34.4368C171.397 32.0647 172.054 30.3275 172.614 29.2243C173.216 27.9554 173.965 26.8245 174.864 25.8315C175.84 24.7288 176.684 24.1777 177.395 24.1777C177.958 24.1777 178.239 24.6327 178.239 25.5427C178.239 26.3148 177.95 27.8529 177.368 30.1549C176.787 32.4578 176.495 34.0091 176.495 34.8089C176.495 36.5188 176.983 37.8629 177.958 38.8421C178.932 39.8214 180.302 40.311 182.062 40.311C185.212 40.311 187.574 39.58 189.148 38.118C190.385 36.9601 191.005 35.5399 191.005 33.8574C191.005 32.2578 190.816 30.7 190.442 29.1829C190.18 28.1348 189.823 27.1278 189.373 26.1631C189.035 25.3351 188.867 24.9501 188.867 25.0048C188.867 24.0674 189.279 22.7985 190.104 21.1984C190.291 20.8408 190.424 20.6614 190.498 20.6614C190.649 20.6614 190.873 20.8955 191.173 21.3646C192.335 23.1574 193.253 25.9003 193.928 29.596C194.566 33.0435 195.485 35.5117 196.684 37.0011C197.883 38.4905 199.701 39.2348 202.138 39.2348C204.201 39.2348 205.551 38.6977 206.187 37.6215C206.187 37.2357 205.756 36.4222 204.894 35.181C203.807 33.6092 203.038 32.3133 202.589 31.2926Z" fill="#18273D"/>
    <path d="M163.298 6.86804C163.298 5.57176 163.017 4.50962 162.455 3.68289C162.455 3.21377 162.96 2.09694 163.973 0.331546C164.123 0.110658 164.236 0 164.311 0C164.423 0 164.555 0.110658 164.705 0.331546C165.005 0.799811 165.679 2.0696 166.728 4.13663C167.854 6.28826 168.509 7.61145 168.697 8.10835C168.847 8.49415 168.921 8.78425 168.921 8.9778C168.921 9.55629 168.135 9.1974 166.56 7.90156C166.373 7.70887 166.279 7.7909 166.279 8.14979C166.279 16.5529 167.818 20.3943 167.818 28.906C167.818 32.0506 167.214 34.8187 165.906 37.1801C165.64 37.6599 165.381 37.9936 165.231 38.2145C164.969 38.5452 164.834 38.5986 164.782 38.3798C164.723 38.1299 164.712 37.6198 164.837 36.8494C165.012 35.7728 165.119 34.5188 165.119 33.0845C165.119 22.757 163.298 17.1789 163.298 6.86804Z" fill="#18273D"/>
    <path d="M154.005 6.86676C154.005 5.57091 153.723 4.50877 153.161 3.68161C153.161 3.18515 153.668 2.0555 154.679 0.290103C154.829 0.0965585 154.942 0 155.016 0C155.13 0 155.26 0.110658 155.411 0.331546C155.711 0.799811 156.386 2.06832 157.434 4.13663C158.56 6.28826 159.216 7.61145 159.403 8.10834C159.553 8.49415 159.627 8.77015 159.627 8.93635C159.627 9.54219 158.841 9.1974 157.266 7.90156C157.079 7.70801 156.985 7.7768 156.985 8.10834C156.985 8.19123 157.331 11.7353 158.026 18.7396C158.719 25.7452 159.067 29.9233 159.067 31.2742C159.067 33.4806 158.54 35.6044 157.491 37.6454C156.067 40.5131 153.873 42.402 150.911 43.3124V43.3094C148.163 44.1738 146.105 44.8505 144.738 45.3397C142.001 46.2771 140.108 47.0355 139.059 47.6144C137.184 48.6902 134.447 50.7585 130.848 53.8198C128.71 55.6399 126.573 56.5499 124.437 56.5499C122.601 56.5499 121.007 55.9436 119.657 54.7298C118.233 53.4887 117.521 51.9578 117.521 50.1382C117.521 47.6559 118.908 44.4156 121.682 40.4165C121.981 40.003 122.207 39.7962 122.357 39.7962C122.431 39.8239 122.468 39.8791 122.468 39.9615C122.468 40.3755 121.87 41.7748 120.67 44.1605C119.47 46.5459 118.87 48.4279 118.87 49.8071C118.87 50.8824 119.207 51.7241 119.882 52.3304C120.595 53.0195 121.588 53.3648 122.863 53.3648C125.112 53.3648 127.399 52.5235 129.723 50.841C131.184 49.5729 132.647 48.304 134.109 47.0355C136.021 45.4636 138.514 44.0567 141.589 42.816C143.425 42.0986 146.575 41.0369 151.036 39.6308V39.6321C154.553 38.5016 156.31 36.8054 156.31 34.5427C156.31 33.4114 155.925 28.8611 155.158 20.8908C154.389 12.9209 154.005 8.24592 154.005 6.86676Z" fill="#18273D"/>
    <path d="M118.389 23.001C119.438 22.6694 120.825 22.2144 122.55 21.6359C122.326 21.4706 121.05 20.6844 118.726 19.2775C116.664 18.0363 115.361 17.0848 114.819 16.423C114.275 15.7612 114.003 15.0712 114.003 14.3547C114.003 13.1405 114.686 12.0796 116.054 11.1696C117.424 10.2595 119.12 9.80366 121.145 9.80366C124.894 9.80366 130.854 10.5484 139.027 12.0382C139.365 12.0929 143.657 12.9482 151.905 14.603C152.354 14.6863 152.485 14.92 152.297 15.3062L151.005 18.0363C150.855 18.3119 150.733 18.499 150.64 18.5952C150.546 18.6913 150.386 18.7669 150.16 18.8225C142.739 20.1187 135.353 21.8282 128.006 23.9525C128.117 24.7792 128.173 25.4136 128.173 25.8546C128.173 26.5172 128.043 26.8475 127.78 26.8475C127.404 26.8475 126.618 26.0896 125.418 24.5724C124.068 24.8766 121.725 25.5657 118.389 26.6407C117.076 27.0543 115.905 27.5029 114.874 27.9853C113.844 28.4676 113.327 28.7923 113.327 28.9573C113.327 29.3435 113.628 29.9916 114.227 30.9021L114.208 30.9192C114.227 30.9397 114.242 30.9611 114.255 30.985C116.73 30.3783 118.735 30.0754 120.272 30.0754C121.847 30.0754 123.084 30.5577 123.984 31.5229C124.883 32.4885 125.333 33.757 125.333 35.3288C125.333 36.6251 124.948 37.6937 124.18 38.5349C123.413 39.3762 122.391 39.7966 121.116 39.7966C118.267 39.7966 115.679 38.1974 113.356 34.9981C109.044 36.9011 105.596 37.8522 103.009 37.8522V37.8513C102.416 37.8509 101.971 37.8099 101.674 37.7274C101.674 40.4853 101.467 42.5814 101.055 44.0152C100.604 45.6144 99.8181 46.8146 98.6925 47.6144C95.6939 49.7929 92.039 51.7237 87.7272 53.4058C82.2544 55.5019 77.0993 56.5499 72.2631 56.5499C65.4028 56.5499 60.6786 54.0676 58.0918 49.1038C57.5667 48.1382 57.3048 46.9252 57.3048 45.4632C57.3048 44.4151 57.4169 43.3949 57.6417 42.4019C57.9425 40.8848 58.392 39.5748 58.9914 38.4717C59.2168 38.0859 59.4044 37.8928 59.5542 37.8928C59.7035 37.8928 59.7412 38.1273 59.6663 38.596C59.4415 39.2852 59.2168 39.9752 58.9914 40.6648C58.6174 41.9328 58.4292 42.857 58.4292 43.4359C58.4292 45.4769 59.366 47.3521 61.2414 49.0623C63.7911 51.3511 67.4454 52.4953 72.2062 52.4953C76.4053 52.4953 80.8106 51.7651 85.4226 50.3031C88.984 49.1726 92.3201 47.7105 95.4308 45.9182C98.0548 44.4566 99.5939 43.3671 100.043 42.6502C100.043 40.3887 99.1612 37.9889 97.4008 35.4523C97.1006 34.9558 96.9501 34.5837 96.9501 34.3355C96.9501 34.1146 97.3056 33.1631 98.0176 31.481C98.1309 31.1499 98.2616 30.9846 98.4114 30.9846C98.599 30.9846 98.8429 31.205 99.1432 31.6459C99.6311 32.4462 99.9865 32.9285 100.211 33.0943C100.811 33.563 101.748 33.7976 103.022 33.7976V33.7984C105.382 33.7954 108.32 33.0918 111.838 31.6887C111.829 31.6613 111.826 31.634 111.827 31.6066L111.81 31.6049C111.734 31.1085 111.696 30.6261 111.696 30.1574C111.696 26.7381 113.928 24.3515 118.389 23.001ZM76.5493 39.7953C76.475 39.7402 76.475 39.6577 76.5493 39.5471L78.3486 36.8998C78.4613 36.7345 78.5745 36.652 78.686 36.652C78.8748 36.652 79.6612 37.0032 81.0487 37.7065C82.4356 38.4097 83.1285 38.8306 83.1285 38.9681C83.1285 39.4095 82.5117 40.3469 81.2729 41.7812C81.123 41.9738 80.9726 42.0294 80.8239 41.9465C79.4742 41.1749 78.0495 40.4575 76.5493 39.7953ZM121.734 35.8667C122.522 35.8667 122.914 35.6873 122.914 35.3288C122.914 34.8875 122.465 34.5431 121.566 34.2949C120.516 33.9638 119.072 33.9082 117.237 34.1291C118.622 35.2878 120.123 35.8667 121.734 35.8667ZM143.076 16.9609C141.088 16.3816 137.978 15.7065 133.74 14.9332C128.304 13.9685 123.938 13.4861 120.638 13.4861C118.014 13.4861 116.701 13.6374 116.701 13.9411C116.701 14.1065 117.095 14.4376 117.883 14.9332C119.345 15.8445 120.825 16.7546 122.326 17.6642C124.537 19.0152 125.943 19.994 126.543 20.6011C132.429 19.0293 137.939 17.8163 143.076 16.9609Z" fill="#18273D"/>
    <path d="M83.1512 6.89751C83.1512 5.60123 82.8701 4.54037 82.3079 3.71236C82.3079 3.24324 82.7986 2.12086 83.826 0.362298C83.9585 0.135856 84.0891 0.0307522 84.1635 0.0307522C84.2767 0.0307522 84.4121 0.140128 84.5561 0.362298C84.861 0.828 85.5179 2.10462 86.5813 4.16738C87.6918 6.32329 88.3609 7.64349 88.5496 8.13867C88.6966 8.5249 88.7744 8.81458 88.7744 9.00727C88.7744 9.58704 87.9636 9.24354 86.4129 7.93231C86.2021 7.75372 86.1318 7.82165 86.1318 8.18054C86.1318 8.29077 86.5349 12.4274 87.341 20.59C88.1465 28.7539 88.9347 36.3346 88.9347 37.3553C88.9347 40.4994 88.297 43.2573 87.0227 45.6285C86.7225 46.0977 86.4977 46.4425 86.3478 46.6629C86.0847 46.994 85.9343 47.0491 85.8971 46.8287C85.8228 46.5805 85.8408 46.0699 85.9535 45.2979C86.1411 44.2225 86.2346 42.9672 86.2346 41.5334C86.2346 40.2371 85.4006 31.9322 84.5009 22.5972C83.6013 13.2618 83.1512 8.02844 83.1512 6.89751Z" fill="#18273D"/>
    <path d="M69.6746 6.86676C69.6746 5.57091 69.3917 4.50877 68.8301 3.68161C68.8301 3.18515 69.3371 2.0555 70.3477 0.290103C70.4981 0.0965585 70.6114 0 70.6857 0C70.7984 0 70.9291 0.110658 71.0795 0.331546C71.3798 0.799811 72.0547 2.06832 73.103 4.13663C74.2286 6.28826 74.8843 7.61145 75.0719 8.10834C75.2217 8.49415 75.2961 8.77015 75.2961 8.93635C75.2961 9.54219 74.5097 9.1974 72.9351 7.90156C72.7475 7.70801 72.654 7.7768 72.654 8.10834C72.654 8.19123 73.0008 11.7353 73.6931 18.7396C74.3877 25.7452 74.7338 29.9233 74.7338 31.2742C74.7338 33.4806 74.2094 35.6044 73.1593 37.6454C71.7352 40.5131 69.5422 42.402 66.5801 43.3124V43.3116C63.8342 44.1746 61.7782 44.851 60.4116 45.3397C57.6755 46.2771 55.7815 47.0355 54.7326 47.6144C52.8578 48.6902 50.1211 50.7585 46.5214 53.8198C44.3852 55.6399 42.2485 56.5499 40.1112 56.5499C38.2747 56.5499 36.681 55.9436 35.3319 54.7298C33.9072 53.4887 33.194 51.9578 33.194 50.1382C33.194 47.6559 34.5815 44.4156 37.3559 40.4165C37.6556 40.003 37.8809 39.7962 38.0308 39.7962C38.1057 39.8239 38.1429 39.8791 38.1429 39.9615C38.1429 40.3755 37.5435 41.7748 36.3442 44.1605C35.1437 46.5459 34.5437 48.4279 34.5437 49.8071C34.5437 50.8824 34.8812 51.7241 35.556 52.3304C36.2687 53.0195 37.2624 53.3648 38.5372 53.3648C40.7861 53.3648 43.0732 52.5235 45.3975 50.841C46.8594 49.5729 48.3218 48.304 49.7837 47.0355C51.6956 45.4636 54.1884 44.0567 57.2631 42.816C59.0821 42.1055 62.1882 41.0574 66.5801 39.6718L66.7096 39.6308C70.2229 38.4995 71.9792 36.8037 71.9792 34.5427C71.9792 33.4114 71.5941 28.8611 70.8269 20.8908C70.0579 12.9209 69.6746 8.24592 69.6746 6.86676Z" fill="#18273D"/>
    <path d="M37.1927 20.9216C37.7171 20.9216 38.2607 21.4181 38.8229 22.4114C39.5733 23.7346 40.2476 24.6592 40.8476 25.183C41.9366 26.0875 43.3723 26.5685 45.1518 26.6245C47.1341 26.5685 49.7662 26.1302 53.05 25.3077C54.5124 24.9215 57.6992 23.9974 62.6104 22.5362L52.3194 20.2598C51.9442 20.2051 51.5696 20.3157 51.1944 20.5913C50.9318 20.784 50.5195 20.8669 49.9573 20.8396C48.2707 20.7567 45.9643 20.646 43.0406 20.508C42.4029 20.4533 42.0841 20.3298 42.0841 20.1363C42.0841 19.9983 42.1973 19.7774 42.4215 19.4745L44.2214 17.0751C44.4462 16.7162 44.765 16.5094 45.1774 16.4547C47.3141 16.2065 49.826 16.083 52.7126 16.083C52.7875 16.083 54.887 16.5927 59.0106 17.613C63.4729 18.6884 66.6027 19.3784 68.4015 19.6813C70.2025 19.9842 72.8828 20.3431 76.4437 20.7567C79.7803 21.1711 81.6731 21.3779 82.1238 21.3779C82.348 21.3779 82.4984 21.3907 82.5739 21.4193C82.7615 21.474 82.7423 21.6389 82.5176 21.9158L80.6056 24.5212C80.418 24.7421 80.1177 24.8527 79.706 24.8527C79.2924 24.8527 78.4305 24.7967 77.1191 24.6865C75.8059 24.5771 74.6449 24.5212 73.6326 24.5212C70.4458 24.5212 66.8641 25.045 62.8915 26.093C59.7041 27.0859 56.4993 28.0793 53.2753 29.0722C50.1344 30.0203 47.547 30.5501 45.5148 30.662V30.6847C45.3795 30.6847 45.2459 30.6825 45.1135 30.6791C44.9822 30.6834 44.8539 30.6851 44.7278 30.6851V30.6646C42.7723 30.5629 41.1978 30.0733 40.0043 29.1961C39.2167 28.6437 38.4483 27.7204 37.6985 26.4241C37.0992 25.4586 36.555 24.9762 36.0677 24.9762C35.3928 24.9762 34.3805 25.5 33.0307 26.548C31.5689 27.6503 30.8377 28.6031 30.8377 29.4025C30.8377 30.078 31.2523 30.753 32.08 31.4289L32.0817 31.4302L32.0916 31.4388L32.0933 31.4396L32.1148 31.4576L32.1317 31.4708V31.4725C32.1444 31.4849 32.1561 31.4982 32.1659 31.5123C34.6401 30.9056 36.6461 30.6022 38.1829 30.6022C39.758 30.6022 40.9945 31.0846 41.8942 32.0502C42.7944 33.0153 43.2439 34.2842 43.2439 35.8561C43.2439 37.1519 42.8594 38.2209 42.0911 39.0622C41.3227 39.903 40.3011 40.3234 39.0262 40.3234C36.1769 40.3234 33.59 38.7238 31.2663 35.525C28.3048 36.3799 24.8927 37.924 21.031 40.1581C18.2194 41.8679 15.4078 43.5641 12.5962 45.2462C10.4972 46.4049 8.60383 46.9838 6.91664 46.9838C5.07959 46.9838 3.4859 46.3912 2.13673 45.2052C0.712049 43.9362 0 42.4058 0 40.6135C0 38.1312 1.38635 34.8905 4.16078 30.8919C4.46105 30.4779 4.6864 30.2715 4.83566 30.2715C4.91058 30.2715 4.94834 30.3266 4.94834 30.4369C4.94834 30.8231 4.34896 32.2155 3.14847 34.6149C1.94913 37.0144 1.34918 38.8896 1.34918 40.241C1.34918 41.3164 1.68662 42.1717 2.36149 42.8057C3.1113 43.4949 4.10503 43.8401 5.34153 43.8401C7.40392 43.8401 9.35363 43.3437 11.1907 42.3507C13.4395 40.9169 15.6889 39.4967 17.9389 38.0898C22.3233 35.3793 26.2012 33.4413 29.5727 32.2753C29.1429 31.3114 28.9646 30.5193 29.0384 29.8994C29.3758 27.4448 30.5002 25.2791 32.4128 23.4043C34.1365 21.7496 35.7302 20.9216 37.1927 20.9216ZM39.6448 36.394C40.4323 36.394 40.8255 36.2146 40.8255 35.8561C40.8255 35.4148 40.376 35.0695 39.4758 34.8217C38.4268 34.4906 36.9836 34.4355 35.146 34.6564C36.5329 35.8142 38.0325 36.394 39.6448 36.394Z" fill="#18273D"/>
    <path d="M25.6175 51.2431L27.0231 49.1333C27.1357 48.9684 27.2478 48.8855 27.3611 48.8855C27.5481 48.8855 28.3444 49.2371 29.7504 49.94C31.1565 50.6436 31.8593 51.0504 31.8593 51.1606C31.8593 51.602 31.2408 52.553 30.0037 54.0151C29.8532 54.1808 29.7034 54.2218 29.5541 54.139C28.3165 53.4772 26.9481 52.7876 25.4485 52.0711C24.9612 52.9256 24.4548 53.6429 23.9303 54.2218C23.8183 54.4145 23.6678 54.4701 23.4808 54.3872C22.1311 53.6156 20.7064 52.8846 19.2068 52.195C19.1313 52.1672 19.1313 52.0847 19.2068 51.9467L21.0061 49.3405C21.1187 49.1752 21.2308 49.0923 21.3429 49.0923C21.4933 49.0923 22.1589 49.3815 23.3397 49.9613C24.5204 50.5402 25.2801 50.9675 25.6175 51.2431Z" fill="#18273D"/>
    <path d="M214.68 55.3763C219.741 54.0253 225.138 52.5769 230.874 51.0324C231.175 50.95 231.344 50.9226 231.381 50.95C231.455 51.0051 231.438 51.1294 231.325 51.3225C230.987 51.9015 230.725 52.2463 230.537 52.3569C225.739 53.625 220.133 55.2383 213.724 57.1968C213.948 56.6452 214.266 56.0385 214.68 55.3763Z" fill="#18273D"/>
    <path d="M144.561 35.3122C144.561 35.8087 144.412 36.3466 144.112 36.9255C143.699 37.6428 143.156 38.0013 142.481 38.0013C141.432 38.0013 140.7 37.4771 140.288 36.429C139.8 37.7804 138.901 38.4563 137.589 38.4563C137.102 38.4563 136.67 38.2769 136.295 37.918C135.883 37.4771 135.677 36.9118 135.677 36.2222V34.5675C135.677 34.4295 135.545 34.3334 135.284 34.2782C135.02 34.2231 134.89 34.0851 134.89 33.8642C134.89 33.5058 135.114 33.1473 135.565 32.7889C135.939 32.4855 136.22 32.3334 136.407 32.3334C136.67 32.3334 136.802 32.6923 136.802 33.4096C136.802 33.7955 136.765 34.1193 136.688 34.3812C136.614 34.6435 136.577 34.8572 136.577 35.0229C136.577 35.4361 136.688 35.8087 136.914 36.1398C137.139 36.5534 137.457 36.7601 137.87 36.7601C138.357 36.7601 138.816 36.5948 139.247 36.2637C139.678 35.9326 139.894 35.5604 139.894 35.1468C139.894 34.8986 139.792 34.4645 139.585 33.8437C139.38 33.2234 139.276 32.8299 139.276 32.665C139.276 32.5265 139.369 32.3133 139.556 32.0232C139.744 31.734 139.876 31.5891 139.951 31.5891C140.138 31.5891 140.354 32.0027 140.597 32.8299C140.841 33.6579 140.963 34.2641 140.963 34.6504C140.963 35.7813 141.562 36.3466 142.762 36.3466C143.287 36.3466 143.605 36.1534 143.718 35.7676C142.705 34.4714 142.2 33.4648 142.2 32.7474C142.2 32.3616 142.331 32.0027 142.594 31.672C142.782 31.4511 142.912 31.3409 142.987 31.3409C143.063 31.3409 143.118 31.4785 143.156 31.7545C143.193 32.1134 143.268 32.4167 143.381 32.665C143.418 32.6923 143.681 33.1614 144.168 34.071C144.43 34.5953 144.561 35.0088 144.561 35.3122Z" fill="#18273D"/>
    <path d="M155.134 54.6452C160.195 53.2943 177.969 48.777 183.704 47.2312C184.006 47.1504 184.173 47.1214 184.211 47.1487C184.285 47.2038 184.267 47.3286 184.154 47.5213C183.818 48.1002 183.555 48.445 183.366 48.5557C178.568 49.8237 160.589 54.5077 154.178 56.4658C154.404 55.9142 154.722 55.3075 155.134 54.6452Z" fill="#18273D"/>
    <path d="M90.4721 13.8087C95.5331 12.4582 119.165 6.00158 124.9 4.45622C125.2 4.37504 125.368 4.34556 125.405 4.37291C125.481 4.42888 125.462 4.55363 125.35 4.74589C125.012 5.32482 124.749 5.66918 124.562 5.77941C119.763 7.04834 95.9275 13.6711 89.5161 15.6301C89.7409 15.0776 90.0586 14.4705 90.4721 13.8087Z" fill="#18273D"/>
    <path d="M128.264 29.4452C133.325 28.0947 141.611 26.0776 147.346 24.5323C147.646 24.4511 147.815 24.4216 147.852 24.4489C147.927 24.5049 147.908 24.6297 147.797 24.8219C147.459 25.3996 147.196 25.7452 147.009 25.8554C142.209 27.1244 133.719 29.3076 127.308 31.2661C127.533 30.7146 127.851 30.1074 128.264 29.4452Z" fill="#18273D"/>
    <path d="M81.6598 58.1196C86.7208 56.7687 95.0087 54.7512 100.742 53.2058C101.044 53.1251 101.212 53.096 101.249 53.1234C101.323 53.1785 101.304 53.3032 101.192 53.4955C100.856 54.074 100.593 54.4196 100.404 54.5299C95.6063 55.7984 87.1151 57.9821 80.705 59.9401C80.9297 59.3886 81.248 58.7819 81.6598 58.1196Z" fill="#18273D"/>
    <path d="M63.5919 35.2135C63.5919 35.71 63.4433 36.2479 63.143 36.8268C62.7295 37.5442 62.187 37.9026 61.5116 37.9026C60.4615 37.9026 59.7309 37.3784 59.3185 36.3304C58.8312 37.6818 57.931 38.3577 56.6196 38.3577C56.1317 38.3577 55.7007 38.1782 55.3256 37.8198C54.9132 37.3784 54.707 36.8132 54.707 36.1236V34.4688C54.707 34.3308 54.5758 34.2347 54.3132 34.1796C54.0507 34.1245 53.92 33.9865 53.92 33.7656C53.92 33.4071 54.1448 33.0487 54.5949 32.6902C54.9695 32.3868 55.2506 32.2347 55.4382 32.2347C55.7007 32.2347 55.8314 32.5936 55.8314 33.311C55.8314 33.6968 55.7943 34.0206 55.7193 34.2826C55.6444 34.5449 55.6072 34.7585 55.6072 34.9243C55.6072 35.3374 55.7193 35.71 55.9441 36.0411C56.1689 36.4543 56.4877 36.6615 56.9001 36.6615C57.3879 36.6615 57.8468 36.4961 58.2777 36.1654C58.7087 35.8339 58.9247 35.4618 58.9247 35.0482C58.9247 34.8 58.8219 34.3659 58.6152 33.7451C58.409 33.1247 58.3062 32.7312 58.3062 32.5663C58.3062 32.4279 58.3997 32.2142 58.5873 31.9246C58.7743 31.6353 58.9061 31.4905 58.9811 31.4905C59.1686 31.4905 59.3835 31.9041 59.6275 32.7312C59.8708 33.5592 59.9934 34.1655 59.9934 34.5517C59.9934 35.6827 60.5933 36.2479 61.7927 36.2479C62.3177 36.2479 62.636 36.0548 62.7486 35.669C61.7363 34.3727 61.2299 33.3661 61.2299 32.6488C61.2299 32.2629 61.3617 31.9041 61.6236 31.5734C61.8112 31.3525 61.9425 31.2422 62.018 31.2422C62.0929 31.2422 62.1487 31.3798 62.187 31.6558C62.2242 32.0147 62.2985 32.3181 62.4112 32.5663C62.4484 32.5936 62.7115 33.0628 63.1993 33.9724C63.4613 34.4966 63.5919 34.9098 63.5919 35.2135Z" fill="#18273D"/>
    <path d="M46.9587 32.3159C52.0197 30.9649 60.307 28.9474 66.0406 27.4021C66.3408 27.3213 66.5093 27.2927 66.5464 27.3201C66.6219 27.3747 66.6028 27.4995 66.4913 27.6922C66.1538 28.2707 65.8919 28.6163 65.7031 28.7266C60.9046 29.9946 52.4141 32.1783 46.0033 34.1364C46.2281 33.5848 46.5463 32.9781 46.9587 32.3159Z" fill="#18273D"/>
    <path d="M32.7078 44.3285C37.7694 42.9779 48.3909 40.3239 54.1245 38.7789C54.4248 38.6986 54.5938 38.6691 54.6309 38.6965C54.7059 38.7516 54.6867 38.8768 54.5752 39.069C54.2389 39.6475 53.9752 39.9927 53.7871 40.1034C48.9886 41.3715 38.1632 44.1909 31.7524 46.1494C31.9778 45.5974 32.2955 44.9907 32.7078 44.3285Z" fill="#18273D"/>
    <path d="M33.9431 10.6325C33.9431 10.9355 33.4559 11.5832 32.4813 12.5761C31.3563 13.7344 30.2882 14.5756 29.2765 15.0994C28.6388 15.431 26.5206 15.9548 22.9215 16.6713C22.2466 16.7546 21.9092 16.796 21.9092 16.796C21.9841 16.7401 22.228 16.6025 22.6404 16.3816C23.0899 16.1069 24.3839 15.5686 26.5206 14.7683C28.5075 13.9685 29.6691 13.4588 30.0071 13.2379C30.082 13.1832 30.1198 13.1277 30.1198 13.073C30.1198 12.7414 28.3199 12.5761 24.7213 12.5761C24.7213 12.5761 24.0465 12.5906 22.6967 12.618C21.9841 12.6453 21.6281 12.618 21.6281 12.5347C21.6281 12.48 21.7216 12.342 21.9092 12.1211L23.2032 10.5497C23.5778 10.0801 24.2712 9.79043 25.283 9.67978C25.6204 9.62509 26.4457 9.59774 27.7577 9.59774C31.8819 9.59774 33.9431 9.94253 33.9431 10.6325Z" fill="#18273D"/>
    <path fill-rule="evenodd" clip-rule="evenodd" d="M10.0343 20.8143C7.32548 22.8741 5.97398 24.625 5.97398 26.0665C5.71553 28.6065 7.64375 27.635 8.634 27.2C7.606 29.3282 6.58033 30.3924 5.55407 30.3924C4.24613 30.3924 3.59448 29.7404 3.59448 28.4356C3.59448 27.1321 4.3164 25.6205 5.76432 23.9042C7.21048 22.1884 8.5858 21.0891 9.89432 20.6076C10.3276 20.4602 10.417 20.5037 10.0343 20.8143Z" fill="#18273D"/>
    <path fill-rule="evenodd" clip-rule="evenodd" d="M189.022 6.73346C189.022 8.46382 188.541 10.3514 187.578 12.3958C187.792 11.2166 187.899 9.99807 187.899 8.7394C187.899 6.14385 186.83 4.13792 184.692 2.72244L185.013 0.00897503C186.297 0.717782 187.31 1.81923 188.06 3.31204C188.702 4.57115 189.022 5.7119 189.022 6.73346Z" fill="#18273D"/>
    <path fill-rule="evenodd" clip-rule="evenodd" d="M164.67 46.3566C164.247 46.1229 163.663 45.7721 162.923 45.3043L162.764 46.3566C163.082 46.5117 163.505 46.5497 164.036 46.4732C164.247 46.4732 164.457 46.4335 164.67 46.3566ZM162.289 45.1881C162.182 44.8757 161.916 44.7587 161.493 44.8373C160.858 44.9142 160.435 45.1479 160.223 45.5384C160.753 45.9272 161.281 46.1229 161.811 46.1229C162.129 45.7319 162.289 45.4213 162.289 45.1881ZM147.645 52.8918C146.286 52.9542 149.773 52.2748 150.773 51.9959C153.943 51.1132 157.503 49.8408 159.594 48.7663C160.671 48.2143 161.251 47.7208 161.335 47.2914C160.169 47.1342 159.534 46.862 159.429 46.4732C159.322 46.0823 159.455 45.5769 159.827 44.9544C160.197 44.3297 160.542 43.9789 160.858 43.9029L160.382 43.3188L160.542 42.9676C160.963 42.9676 161.654 43.1227 162.605 43.4351V43.6688C163.453 44.0584 164.352 44.7587 165.305 45.7721C165.623 46.9406 165.305 47.5631 164.354 47.6413C163.717 47.7182 162.976 47.6798 162.129 47.5247C161.823 50.1963 157.639 51.3622 154.615 52.3565L147.645 52.8918Z" fill="#18273D"/>
    <path fill-rule="evenodd" clip-rule="evenodd" d="M104.254 19.2899C103.578 18.171 102.398 17.357 100.712 16.8473C99.9238 17.6621 99.5312 18.476 99.5312 19.2899C99.5312 20.4119 100.093 20.9699 101.219 20.9699C102.23 20.9699 103.241 20.411 104.254 19.2899ZM104.928 18.8315C104.928 19.9539 104.561 21.0224 103.831 22.0384C103.1 23.0566 102.172 23.5654 101.049 23.5654C99.2501 23.5654 98.3522 22.6485 98.3522 20.8165C98.3522 20.411 98.7152 19.1639 99.4482 17.0759C100.178 14.9901 100.544 13.2345 100.544 11.8075C100.544 9.2645 99.4197 7.22652 97.1703 5.69996C97.1703 5.60041 97.0024 4.07342 96.6644 1.12027C98.2378 2.03587 99.5312 3.36034 100.544 5.08942C101.555 6.82192 102.062 8.44846 102.062 9.97545C102.062 11.7079 101.835 13.132 101.387 14.2509C103.748 14.964 104.928 16.4919 104.928 18.8315Z" fill="#18273D"/>
    <path fill-rule="evenodd" clip-rule="evenodd" d="M23.6637 23.5214C23.6637 24.0332 23.4035 24.5429 22.8837 25.0526C22.5358 24.6698 22.1885 24.4784 21.8429 24.4784C21.1477 24.4784 20.6279 25.1808 20.2823 26.5831C20.0221 27.6046 19.7619 28.592 19.5017 29.549C19.2415 28.8479 18.5911 27.796 17.5509 26.3925C17.376 26.9659 16.9857 27.2521 16.38 27.2521C15.9456 27.2521 15.5349 27.1103 15.1441 26.8223C14.7543 26.5348 14.5592 26.2002 14.5592 25.8174C14.5592 24.798 15.079 24.287 16.1198 24.287C17.3331 24.287 18.4168 25.3077 19.3711 27.3487C20.1522 23.7773 21.2348 21.9901 22.6229 21.9901C23.3158 21.9901 23.6637 22.502 23.6637 23.5214Z" fill="#18273D"/>
    <path d="M142.097 3.33941C142.097 3.60217 141.675 4.16315 140.832 5.02277C139.858 6.02553 138.935 6.75314 138.058 7.20687C137.506 7.49356 135.673 7.94644 132.557 8.56767C131.974 8.63859 131.681 8.6749 131.681 8.6749C131.747 8.62663 131.957 8.50742 132.315 8.3173C132.704 8.07761 133.823 7.61276 135.673 6.92062C137.394 6.22805 138.398 5.78627 138.691 5.59572C138.756 5.54786 138.788 5.49959 138.788 5.45259C138.788 5.1659 137.23 5.02277 134.115 5.02277C134.115 5.02277 133.532 5.03474 132.363 5.05866C131.747 5.08174 131.439 5.05866 131.439 4.98646C131.439 4.93861 131.519 4.8194 131.681 4.62885L132.801 3.26721C133.126 2.8626 133.725 2.61095 134.601 2.51567C134.894 2.46782 135.608 2.44475 136.744 2.44475C140.313 2.44475 142.097 2.7434 142.097 3.33941Z" fill="#18273D"/>
    <path fill-rule="evenodd" clip-rule="evenodd" d="M180.343 12.4821C180.343 12.9931 180.083 13.5028 179.564 14.0125C179.216 13.6297 178.868 13.4383 178.522 13.4383C177.828 13.4383 177.308 14.1415 176.962 15.5438C176.702 16.564 176.442 17.5527 176.182 18.5097C175.921 17.8086 175.272 16.7555 174.231 15.3524C174.055 15.9266 173.666 16.2128 173.059 16.2128C172.625 16.2128 172.215 16.0697 171.823 15.783C171.434 15.4955 171.239 15.161 171.239 14.7781C171.239 13.7587 171.76 13.2469 172.799 13.2469C174.014 13.2469 175.096 14.2684 176.051 16.3094C176.832 12.7372 177.915 10.9508 179.302 10.9508C179.995 10.9508 180.343 11.4618 180.343 12.4821Z" fill="#18273D"/>
    <path fill-rule="evenodd" clip-rule="evenodd" d="M56.7717 7.3252C56.8437 7.19147 56.9076 7.05389 56.9604 6.91589C57.3043 5.83324 57.5871 4.7382 58.0012 3.66965C58.2312 3.11508 58.5733 2.58486 59.0118 2.10335C59.6797 1.34541 60.4783 1.32917 61.321 1.98116C62.0557 2.55196 62.1539 3.08004 61.6892 3.77048C61.4755 4.08878 61.256 4.11612 60.9487 3.84567C60.8877 3.79099 60.8465 3.72562 60.7844 3.67093C60.1147 3.08004 59.3179 3.10098 58.938 3.81619C58.4618 4.71641 58.1575 5.66704 57.8165 6.60229C57.5441 7.3504 57.3577 8.11689 57.0731 8.86415C56.9564 9.17006 56.6822 9.44606 56.4801 9.73446L56.2693 9.70199C56.2043 9.41872 56.1955 9.11879 56.0631 8.85304C55.4858 7.69605 54.8864 6.53991 54.2458 5.40001C54.0396 5.03129 53.7202 4.71427 53.036 5.08171C52.8484 5.18126 52.3768 5.09709 52.1155 4.99199C51.7025 4.82578 51.3576 4.56773 50.9405 4.32505C50.8354 4.41349 50.7413 4.50962 50.6606 4.61131C49.7528 6.0631 48.298 7.15985 46.5991 8.12586C43.6905 9.77419 40.2871 10.6172 36.8215 11.3926C37.7554 10.9782 38.7068 10.5847 39.6192 10.1472C42.63 8.70222 45.6478 7.26154 48.6215 5.77513C49.9364 5.11802 50.8035 4.15201 51.5179 3.11508C52.1794 2.15932 52.3594 2.09694 53.7713 2.77627C54.8812 3.30649 55.3226 4.20371 55.7675 5.05565C56.1409 5.77428 56.3622 6.53521 56.6503 7.27905L56.7717 7.3252Z" fill="#18273D"/>
    <path fill-rule="evenodd" clip-rule="evenodd" d="M24.8213 44.0315C24.5756 44.443 24.3706 44.8711 24.0767 45.2633C23.3757 46.1994 22.3262 46.9159 21.1222 47.476C19.8933 48.0468 18.64 48.6245 17.3006 49.0201C16.0653 49.3867 14.7016 49.5208 13.3902 49.7447C12.5457 49.8913 11.696 50.0228 10.8492 50.1604L10.8033 50.06C10.9387 50.0096 11.0734 49.9566 11.2128 49.9109C13.6202 49.1209 16.0496 48.3527 18.4442 47.535C20.1001 46.9714 21.663 46.2669 22.9907 45.3385C23.5163 44.9706 23.874 44.4677 24.2847 44.0153C24.5042 43.7735 24.6581 43.4923 24.8858 43.2514C25.1384 42.9869 25.3068 42.81 25.4724 42.6609C26.3488 41.8726 27.2566 41.4291 28.2137 42.4003C29.046 43.245 28.7806 44.3904 28.115 45.0813C27.9918 45.2103 27.8658 45.3893 27.7706 45.3504C26.7983 45.1377 25.6298 44.6463 24.8213 44.0315ZM25.8441 43.2356C26.3778 43.5581 26.9342 43.8423 27.5905 43.9687C28.0668 44.0597 27.2362 42.6797 26.5492 42.8045C26.0857 42.9386 25.8441 43.2356 25.8441 43.2356Z" fill="#18273D"/>
    <path fill-rule="evenodd" clip-rule="evenodd" d="M234.444 54.4154C235.426 53.9287 236.364 53.5626 237.131 53.0576C238.334 52.2667 239.455 51.4054 240.546 50.5295C241.6 49.6827 242.641 48.8359 243.991 48.2416C245.227 47.6986 246.535 47.4888 247.958 47.8498C249.236 48.175 249.97 47.9631 250.731 47.1261C251.027 46.8026 251.338 46.4852 251.641 46.1652C251.773 46.0451 251.837 46.0716 251.835 46.2417C251.784 46.4467 251.712 46.6514 251.627 46.8509C251.5 47.0932 251.627 47.2278 251.934 47.2551C252.353 47.2991 252.781 47.3286 253.204 47.3307C253.797 47.3329 253.211 46.7668 253.077 46.5288C253.266 46.3532 253.783 45.9383 254.046 45.5875C254.595 46.0178 254.43 46.5284 254.351 46.9992C254.295 47.3636 254.087 47.7242 253.883 48.0656C253.34 48.9705 251.717 48.7936 250.757 48.4715C250.465 48.662 250.279 48.7753 249.804 49.0316C249.092 49.4221 248.269 49.5964 247.396 49.3563C245.72 48.8928 244.211 49.2461 242.871 49.9476C241.735 50.5424 240.735 51.2802 239.699 51.9736C239.059 52.4065 238.48 52.8974 237.824 53.322C236.918 53.9185 235.788 54.203 234.444 54.4154Z" fill="#18273D"/>
    <path fill-rule="evenodd" clip-rule="evenodd" d="M222.884 14.4727C223.158 13.634 223.403 12.7885 223.718 11.9562C223.889 11.5208 224.124 11.0987 224.417 10.6992C224.673 10.3459 225.074 10.0028 225.69 10.16C226.292 10.3002 226.704 10.7124 226.704 11.1773C226.704 11.1837 226.702 11.1905 226.702 11.1961C226.702 11.4507 226.566 11.7067 226.472 12.0228C226.323 11.966 226.181 11.9015 226.045 11.8293C225.106 11.1927 224.694 11.2354 224.268 12.1365C223.93 12.8543 223.737 13.6109 223.481 14.3505L222.923 15.9988C223.73 16.4624 224.588 16.8606 225.278 17.378C225.969 17.8941 225.474 18.8554 224.508 19.0789C223.599 19.2899 222.7 19.5215 221.804 19.7697C221.278 19.9163 221.14 20.1799 221.338 20.6067C222.126 22.2986 222.486 24.0563 222.587 25.8358C222.626 26.5019 222.48 27.1735 222.359 27.8255C222.13 26.4583 221.931 25.0898 221.663 23.7226C221.503 22.9079 221.22 22.1072 221.027 21.2937C220.912 20.916 220.856 20.5289 220.856 20.1418C220.856 20.097 220.858 20.0487 220.858 20.0038C220.944 19.163 221.451 18.5046 222.634 18.232C222.869 18.1795 223.094 18.0996 223.336 18.0274C222.725 17.3634 222.386 17.378 221.371 18.1184C221.371 17.4335 221.581 16.8747 222.141 16.3782C222.31 16.2325 222.446 15.9591 222.372 15.8018C221.952 14.9038 221.493 14.0147 220.978 13.1452C220.81 12.8607 220.614 12.5236 219.897 12.7568C219.613 12.8487 218.971 12.5018 218.62 12.2599C218.45 12.1454 218.477 11.7507 218.62 11.5635C219.351 10.5834 220.118 10.5069 220.986 11.4627C221.66 12.198 221.989 13.0991 222.459 13.9305C222.544 14.1121 222.615 14.2988 222.67 14.4859L222.884 14.4727Z" fill="#18273D"/>
    <path fill-rule="evenodd" clip-rule="evenodd" d="M111.547 45.3709C111.301 45.7824 111.096 46.21 110.801 46.6027C110.101 47.5388 109.052 48.2549 107.847 48.8154C106.617 49.3862 105.364 49.9639 104.024 50.3595C102.791 50.7256 101.427 50.8602 100.116 51.0837C99.2699 51.2307 98.4208 51.3618 97.5746 51.4998L97.5287 51.399C97.664 51.349 97.7993 51.296 97.9376 51.2499C100.344 50.4599 102.774 49.6921 105.17 48.8739C106.824 48.3108 108.387 47.6063 109.715 46.6779C110.241 46.31 110.599 45.8071 111.009 45.3547C111.23 45.1129 111.383 44.8313 111.611 44.5908C111.863 44.3263 112.033 44.1494 112.198 44.0003C113.074 43.2116 113.982 42.7685 114.938 43.7393C115.77 44.5839 115.506 45.7294 114.84 46.4203C114.716 46.5493 114.59 46.7287 114.495 46.6894C113.522 46.4771 112.355 45.9853 111.547 45.3709ZM112.569 44.575C113.103 44.8975 113.659 45.1817 114.315 45.3077C114.792 45.3991 113.961 44.0187 113.274 44.1434C112.81 44.278 112.569 44.575 112.569 44.575Z" fill="#18273D"/>
</svg>
