<svg width="282" height="63" viewBox="0 0 282 63" fill="none"
    xmlns="http://www.w3.org/2000/svg">
    <path fill-rule="evenodd" clip-rule="evenodd" d="M254.603 52.7727C254.506 52.7727 254.46 52.6377 254.46 52.3636C254.46 52.0895 254.173 51.4595 253.599 50.4736C253.025 49.4836 252.641 48.9886 252.452 48.9886C252.262 48.9886 252.142 49.0214 252.096 49.0909C252.044 49.1604 251.924 49.1932 251.734 49.1932C251.448 49.1932 251.115 49.0582 250.73 48.7841C250.346 48.51 250.157 48.3054 250.157 48.1704C250.157 48.1009 250.323 47.8636 250.662 47.4545C250.994 47.0454 251.207 46.8409 251.304 46.8409C252.067 46.8409 252.784 47.1804 253.456 47.8636C254.127 48.5468 254.603 49.4673 254.89 50.625V50.8295C254.89 50.8295 254.936 50.76 255.034 50.625C255.607 47.6918 256.514 46.2273 257.759 46.2273C258.143 46.2273 258.499 46.3827 258.838 46.6895C259.17 46.9964 259.337 47.2173 259.337 47.3523C259.337 47.4873 259.268 47.6918 259.124 47.9659C258.981 48.24 258.809 48.375 258.619 48.375C258.522 48.375 258.356 48.2564 258.12 48.0191C257.879 47.7777 257.661 47.6591 257.472 47.6591C256.801 47.6591 256.227 48.6491 255.751 50.625C255.366 52.0568 254.988 52.7727 254.603 52.7727Z" fill="#FFFFFF"/>
    <path fill-rule="evenodd" clip-rule="evenodd" d="M54.2198 16.0568C53.8354 13.8764 53.4051 10.6364 52.9288 6.34092V6.0341C52.8313 5.82956 52.7854 5.62501 52.7854 5.42046C52.7854 5.08092 53.5485 3.47728 55.0804 0.613646C55.2698 0.274101 55.6542 0.204555 56.2279 0.409101C62.3499 2.6591 68.2309 6.10365 73.8709 10.7386C80.6584 16.2614 84.055 22.8068 84.055 30.375C84.055 35.1491 82.4772 39.1009 79.3215 42.2386C76.929 44.6932 74.1577 46.4318 71.0021 47.4546C69.8546 47.7941 67.8005 48.2727 64.8342 48.8864C61.8679 49.4305 59.6704 49.7373 58.2361 49.8068C57.6623 49.8764 57.3754 49.8396 57.3754 49.7046C57.3754 49.5696 57.6623 49.3977 58.2361 49.1932C60.9155 48.1009 65.3104 46.1946 71.4324 43.4659C74.2036 42.2386 76.5503 40.8068 78.4609 39.1705C81.1403 36.8509 82.4772 34.6009 82.4772 32.4205C82.4772 26.0796 78.9371 20.115 71.8627 14.5227C66.4121 10.1577 61.581 7.22865 57.3754 5.72728C57.1861 5.59228 57.0427 5.52274 56.9451 5.52274C56.6582 5.52274 56.5607 5.79683 56.6582 6.34092C56.8476 7.90774 57.2779 11.1477 57.9492 16.0568C59.286 25.6009 59.9573 31.5327 59.9573 33.8523C59.9573 36.5809 59.3836 39.0355 58.2361 41.2159C56.7041 44.2841 54.3173 46.2968 51.0641 47.25C47.9085 48.2032 45.5676 48.9559 44.0357 49.5C40.9775 50.5227 38.8719 51.3409 37.7244 51.9546C35.6187 53.1123 32.5606 55.3296 28.5443 58.6023C26.2493 60.5782 23.9084 61.5682 21.5158 61.5682C19.5077 61.5682 17.7405 60.9218 16.2086 59.625C14.5849 58.2627 13.7701 56.6264 13.7701 54.7159C13.7701 51.9873 15.348 48.4773 18.5036 44.1818C18.7905 43.7727 19.0315 43.5682 19.2208 43.5682C19.3183 43.5682 19.3642 43.6009 19.3642 43.6705C19.3642 44.1491 18.6929 45.6464 17.3561 48.1705C16.0193 50.76 15.348 52.8055 15.348 54.3068C15.348 55.4646 15.7324 56.385 16.4955 57.0682C17.2586 57.8168 18.3602 58.1932 19.7946 58.1932C22.2789 58.1932 24.8149 57.2727 27.3968 55.4318C28.1599 54.7486 28.9287 54.1023 29.6918 53.4886C30.5524 52.74 31.4131 52.0241 32.2737 51.3409C34.3794 49.635 37.1506 48.1009 40.5931 46.7386C42.6013 45.99 46.0897 44.865 51.0641 43.3636C55.0804 42.1364 57.0886 40.5327 57.0886 38.5568C57.0886 36.8509 56.1304 29.3523 54.2198 16.0568Z" fill="#00A2B5"/>
    <path fill-rule="evenodd" clip-rule="evenodd" d="M130.386 16.0568C130.001 13.8764 129.571 10.6364 129.095 6.34092V6.0341C128.997 5.82956 128.951 5.62501 128.951 5.42046C128.951 5.08092 129.714 3.47728 131.246 0.613646C131.436 0.274101 131.82 0.204555 132.394 0.409101C138.516 2.6591 144.397 6.10365 150.037 10.7386C156.824 16.2614 160.221 22.8068 160.221 30.375C160.221 35.1491 158.643 39.1009 155.487 42.2386C153.095 44.6932 150.369 46.4318 147.311 47.4546C146.066 47.7941 143.966 48.2727 141 48.8864C138.034 49.4305 135.836 49.7373 134.402 49.8068C133.828 49.8764 133.541 49.8396 133.541 49.7046C133.541 49.5696 133.828 49.3977 134.402 49.1932C137.081 48.1009 141.476 46.1946 147.598 43.4659C150.369 42.2386 152.716 40.8068 154.627 39.1705C157.306 36.8509 158.643 34.6009 158.643 32.4205C158.643 26.0796 155.103 20.115 148.028 14.5227C142.578 10.1577 137.747 7.22865 133.541 5.72728C133.352 5.59228 133.208 5.52274 133.111 5.52274C132.824 5.52274 132.726 5.79683 132.824 6.34092C133.013 7.43319 133.254 9.37637 133.541 12.1705C133.731 13.3282 133.926 14.625 134.115 16.0568C135.452 25.6009 136.123 31.5327 136.123 33.8523C136.123 36.5809 135.549 39.0355 134.402 41.2159C132.87 44.2841 130.483 46.2968 127.23 47.25C124.074 48.2032 121.733 48.9559 120.201 49.5C117.143 50.5227 115.038 51.3409 113.89 51.9546C111.784 53.1123 108.772 55.3296 104.854 58.6023C102.461 60.5782 100.074 61.5682 97.6816 61.5682C95.6735 61.5682 93.9063 60.9218 92.3744 59.625C90.7506 58.2627 89.9359 56.6264 89.9359 54.7159C89.9359 51.9873 91.5137 48.4773 94.6694 44.1818C94.9563 43.7727 95.1972 43.5682 95.3866 43.5682C95.4841 43.5682 95.53 43.6009 95.53 43.6705C95.53 44.1491 94.8587 45.6464 93.5219 48.1705C92.185 50.76 91.5137 52.8055 91.5137 54.3068C91.5137 55.4646 91.8982 56.385 92.6612 57.0682C93.4243 57.8168 94.5259 58.1932 95.9603 58.1932C98.4447 58.1932 100.981 57.2727 103.563 55.4318C104.326 54.7486 105.14 54.0327 106.001 53.2841C106.764 52.6705 107.579 52.0241 108.439 51.3409C110.545 49.635 113.316 48.1009 116.759 46.7386C118.767 45.99 122.255 44.865 127.23 43.3636C131.246 42.1364 133.254 40.5327 133.254 38.5568C133.254 36.8509 132.296 29.3523 130.386 16.0568Z" fill="#FF6106"/>
    <path fill-rule="evenodd" clip-rule="evenodd" d="M267.513 6.95455C266.555 6.95455 266.078 6.41046 266.078 5.31819C266.078 3.88637 266.652 2.42182 267.8 0.92046L268.373 0.306824L268.087 1.02273C267.415 2.58955 267.082 3.68182 267.082 4.29546C267.082 5.18319 267.369 5.62501 267.943 5.62501C268.327 5.62501 268.804 5.31819 269.377 4.70455C269.377 4.56955 269.423 4.50001 269.521 4.50001V4.70455C269.136 6.20591 268.471 6.95455 267.513 6.95455Z" fill="#FFFFFF"/>
    <path fill-rule="evenodd" clip-rule="evenodd" d="M269.091 15.5455C268.993 15.5455 268.947 15.4105 268.947 15.1364C268.947 14.8623 268.66 14.2323 268.086 13.2464C267.513 12.2564 267.128 11.7614 266.939 11.7614C266.75 11.7614 266.629 11.7941 266.583 11.8636C266.532 11.9332 266.411 11.9659 266.222 11.9659C265.935 11.9659 265.602 11.8309 265.218 11.5568C264.833 11.2827 264.644 11.0782 264.644 10.9432C264.644 10.8736 264.81 10.6364 265.149 10.2273C265.482 9.81818 265.694 9.61364 265.791 9.61364C266.555 9.61364 267.272 9.95318 267.943 10.6364C268.614 11.3195 269.091 12.24 269.377 13.3977V13.6023C269.377 13.6023 269.423 13.5327 269.521 13.3977C270.095 10.4645 271.001 9 272.246 9C272.631 9 272.986 9.15545 273.325 9.46227C273.658 9.76909 273.824 9.99 273.824 10.125C273.824 10.26 273.755 10.4645 273.612 10.7386C273.468 11.0127 273.296 11.1477 273.107 11.1477C273.009 11.1477 272.843 11.0291 272.608 10.7918C272.367 10.5505 272.149 10.4318 271.959 10.4318C271.288 10.4318 270.714 11.4218 270.238 13.3977C269.854 14.8295 269.475 15.5455 269.091 15.5455Z" fill="#FFFFFF"/>
    <path fill-rule="evenodd" clip-rule="evenodd" d="M205.691 6.75001C204.733 6.75001 204.256 6.20592 204.256 5.11364C204.256 3.68183 204.83 2.21728 205.978 0.715916L206.551 0.10228L206.264 0.818189C205.501 2.38501 205.117 3.47728 205.117 4.09092C205.117 4.97864 205.45 5.42046 206.121 5.42046C206.505 5.42046 206.936 5.11364 207.412 4.50001C207.51 4.36501 207.601 4.29546 207.699 4.29546V4.50001C207.314 6.00137 206.649 6.75001 205.691 6.75001Z" fill="#FFFFFF"/>
    <path fill-rule="evenodd" clip-rule="evenodd" d="M204.83 16.875C204.733 16.875 204.687 16.7236 204.687 16.4168C204.687 16.11 204.4 15.4595 203.826 14.4736C203.252 13.4836 202.868 12.9886 202.679 12.9886C202.489 12.9886 202.369 13.0214 202.323 13.0909C202.271 13.1604 202.151 13.1932 201.961 13.1932C201.674 13.1932 201.342 13.0745 200.957 12.8373C200.573 12.5959 200.384 12.375 200.384 12.1704C200.384 12.1009 200.55 11.88 200.888 11.5077C201.221 11.1314 201.434 10.9432 201.531 10.9432C202.294 10.9432 203.011 11.2827 203.683 11.9659C204.354 12.6491 204.83 13.5327 205.117 14.625V14.8295H205.26L206.265 11.6591C206.838 10.7059 207.458 10.2273 208.129 10.2273C208.416 10.2273 208.726 10.3827 209.064 10.6895C209.397 10.9964 209.564 11.25 209.564 11.4545C209.564 11.5895 209.495 11.7777 209.351 12.0191C209.208 12.2564 209.087 12.375 208.99 12.375C208.892 12.375 208.726 12.2727 208.491 12.0682C208.25 11.8636 207.986 11.7614 207.699 11.7614C207.125 11.7614 206.597 12.7145 206.121 14.625C205.645 16.1264 205.215 16.875 204.83 16.875Z" fill="#FFFFFF"/>
    <path fill-rule="evenodd" clip-rule="evenodd" d="M148.172 4.29547L148.602 3.88638C149.939 2.86365 150.61 2.18047 150.61 1.84092C150.61 1.50138 150.421 1.32956 150.037 1.32956C149.75 1.32956 149.537 1.36229 149.394 1.43183C149.251 1.50138 149.13 1.5341 149.033 1.5341C149.033 0.646377 149.606 0.204559 150.754 0.204559C151.328 0.204559 151.614 0.47865 151.614 1.02274C151.614 1.50138 151.35 2.0291 150.828 2.61001C150.301 3.18683 149.606 3.68183 148.746 4.09092L148.172 4.29547Z" fill="#FFFFFF"/>
    <path fill-rule="evenodd" clip-rule="evenodd" d="M170.405 4.39774L170.835 3.98865C172.172 2.96592 172.843 2.25001 172.843 1.84092C172.843 1.56683 172.654 1.43183 172.27 1.43183C171.983 1.43183 171.77 1.46456 171.627 1.5341C171.484 1.60365 171.363 1.63638 171.266 1.63638V1.32956C171.455 0.580923 171.983 0.204559 172.843 0.204559C173.515 0.204559 173.847 0.511378 173.847 1.12501C173.847 1.60365 173.584 2.13138 173.061 2.71229C172.534 3.28911 171.839 3.78411 170.979 4.1932L170.405 4.39774Z" fill="#FFFFFF"/>
    <path fill-rule="evenodd" clip-rule="evenodd" d="M32.9909 46.0227C32.2278 46.0227 31.8434 45.5441 31.8434 44.5909C31.8434 43.4332 32.3196 42.2386 33.2778 41.0114C33.4671 40.6718 33.6105 40.5 33.7081 40.5L33.4212 41.0114C32.8475 42.3736 32.5606 43.3309 32.5606 43.875C32.5606 44.5582 32.8475 44.8977 33.4212 44.8977C33.7081 44.8977 34.0409 44.6236 34.4253 44.0795L34.5687 43.9773V44.0795C34.2818 45.3764 33.754 46.0227 32.9909 46.0227Z" fill="#FFFFFF"/>
    <path fill-rule="evenodd" clip-rule="evenodd" d="M23.8107 52.5682C22.9501 52.5682 22.5198 52.0895 22.5198 51.1364C22.5198 49.9786 22.996 48.7514 23.9542 47.4545L24.3845 47.0455L24.241 47.5568C23.6673 48.8536 23.3804 49.8764 23.3804 50.625C23.3804 51.1691 23.6214 51.4432 24.0976 51.4432C24.482 51.4432 24.8607 51.1691 25.2451 50.625C25.2451 50.5555 25.291 50.5227 25.3885 50.5227V50.625C25.0041 51.9218 24.482 52.5682 23.8107 52.5682Z" fill="#FFFFFF"/>
    <path fill-rule="evenodd" clip-rule="evenodd" d="M50.06 39.4773C49.2969 39.4773 48.9125 38.9986 48.9125 38.0455C48.9125 36.8877 49.3887 35.6605 50.3469 34.3637C50.5362 34.0896 50.6796 33.9546 50.7772 33.9546L50.6337 34.4659C49.9624 35.7627 49.6297 36.6832 49.6297 37.2273C49.6297 37.9759 49.9165 38.3523 50.4903 38.3523C50.7772 38.3523 51.11 38.0782 51.4944 37.5341L51.7812 37.4318V37.5341C51.3968 38.8309 50.8231 39.4773 50.06 39.4773Z" fill="#FFFFFF"/>
    <path fill-rule="evenodd" clip-rule="evenodd" d="M38.298 63C37.053 63 36.4333 62.2145 36.4333 60.6477C36.4333 58.6718 37.1964 56.6264 38.7284 54.5114C39.1128 54.0327 39.348 53.7955 39.4456 53.7955L39.1587 54.6136C38.1087 56.8636 37.5809 58.4305 37.5809 59.3182C37.5809 60.4759 38.0571 61.0568 39.0152 61.0568C39.4915 61.0568 40.0652 60.615 40.7365 59.7273L40.8799 59.5227C40.9775 59.5227 41.0234 59.5391 41.0234 59.5759V59.7273C40.4496 61.9077 39.5431 63 38.298 63Z" fill="#FFFFFF"/>
    <path fill-rule="evenodd" clip-rule="evenodd" d="M218.313 62.4887C217.453 62.4887 217.022 62.01 217.022 61.0568C217.022 59.8991 217.499 58.7046 218.457 57.4773L218.887 56.9659L218.744 57.4773C218.072 58.8396 217.74 59.76 217.74 60.2387C217.74 60.9873 218.026 61.3637 218.6 61.3637C218.887 61.3637 219.271 61.0896 219.748 60.5455C219.748 60.4759 219.794 60.4432 219.891 60.4432V60.5455C219.507 61.8423 218.985 62.4887 218.313 62.4887Z" fill="#FFFFFF"/>
    <path fill-rule="evenodd" clip-rule="evenodd" d="M12.3357 44.5909C12.6226 43.9773 13.007 43.2941 13.4832 42.5455L26.823 39.2727C26.9205 39.2727 26.9664 39.3055 26.9664 39.375L26.823 39.5796C26.4386 40.2627 26.1517 40.6718 25.9623 40.8068C22.0436 41.76 17.4995 43.0241 12.3357 44.5909Z" fill="#FFFFFF"/>
    <path fill-rule="evenodd" clip-rule="evenodd" d="M31.8433 8.18183H31.1261C28.9286 7.70319 27.827 7.05683 27.827 6.23865C27.827 5.62501 28.2573 4.94183 29.118 4.19319C29.9786 3.44456 30.7417 2.94956 31.413 2.71229C32.0843 2.47092 36.4333 1.70592 44.4659 0.409103H45.0396L44.8962 0.818194C44.3224 1.50138 43.938 1.87365 43.7487 1.94319C40.4037 2.48729 36.3358 3.20319 31.5564 4.09092C30.0245 4.50001 29.2614 4.83956 29.2614 5.11365C29.2614 5.45319 30.1679 5.93183 31.9867 6.54547C32.0843 6.61501 32.1302 6.88501 32.1302 7.36365C32.0326 7.84228 31.9408 8.11228 31.8433 8.18183Z" fill="#FFFFFF"/>
    <path fill-rule="evenodd" clip-rule="evenodd" d="M30.4089 37.0227L30.122 36.9205C28.5901 36.1023 27.0123 35.3536 25.3885 34.6705V34.5682C25.3885 34.4986 25.75 33.9382 26.4672 32.8827C27.1844 31.8232 27.586 31.2955 27.6836 31.2955C27.8729 31.2955 28.6188 31.6023 29.9097 32.2159C31.2007 32.8296 32.0843 33.2714 32.5605 33.5455C33.6104 31.8396 34.2358 30.9886 34.4252 30.9886C34.6145 30.9886 35.5038 31.365 37.0817 32.1136C38.6595 32.8623 39.4455 33.3082 39.4455 33.4432C39.4455 33.9873 38.7283 35.01 37.2939 36.5114C37.1964 36.6464 37.1046 36.7159 37.0071 36.7159H36.8636L32.2736 34.4659C31.2236 36.1718 30.5982 37.0227 30.4089 37.0227Z" fill="#FFFFFF"/>
    <path fill-rule="evenodd" clip-rule="evenodd" d="M108.87 7.56819H108.153C106.047 6.95455 104.997 6.23864 104.997 5.42046C104.997 4.87637 105.45 4.24637 106.362 3.53046C107.269 2.81455 108.13 2.33591 108.944 2.09864C109.753 1.85728 112.071 1.50137 115.898 1.02273L121.923 0.306824H122.64L122.353 0.715915L121.205 1.84091C117.861 2.18046 113.747 2.76137 108.87 3.57955C107.246 3.9191 106.431 4.22591 106.431 4.50001C106.431 4.7741 107.292 5.24864 109.013 5.93182C109.111 6.00137 109.157 6.13637 109.157 6.34092C109.157 7.0241 109.059 7.43319 108.87 7.56819Z" fill="#FFFFFF"/>
    <path fill-rule="evenodd" clip-rule="evenodd" d="M168.397 13.8068H168.11C165.626 13.4673 164.38 12.8536 164.38 11.9659C164.38 11.4218 164.713 10.755 165.385 9.97364C166.056 9.18819 166.75 8.62364 167.467 8.2841C168.184 7.94455 173.228 6.57819 182.597 4.19319L197.658 0.306824L197.515 0.715915C197.13 1.3991 196.872 1.77137 196.729 1.84091C196.585 1.91046 192.305 3.06819 183.888 5.31819C174.995 7.63773 169.59 9.135 167.68 9.81819C166.245 10.4318 165.528 10.8082 165.528 10.9432C165.528 11.2827 166.532 11.6591 168.54 12.0682C168.73 12.1377 168.827 12.4446 168.827 12.9886C168.827 13.3977 168.804 13.635 168.758 13.7045C168.707 13.7741 168.586 13.8068 168.397 13.8068Z" fill="#FFFFFF"/>
    <path fill-rule="evenodd" clip-rule="evenodd" d="M178.437 61.875C178.34 61.875 178.294 61.6868 178.294 61.3146C178.294 60.9382 177.91 60.0505 177.146 58.6555C176.383 57.2564 175.81 56.5568 175.425 56.5568C175.236 56.5568 175.115 56.61 175.069 56.7123C175.018 56.8146 174.806 56.8636 174.421 56.8636C174.134 56.8636 173.704 56.6918 173.13 56.3523C172.556 56.0127 172.27 55.7059 172.27 55.4318C172.27 55.3623 172.511 55.0555 172.987 54.5114C173.463 53.9673 173.75 53.6932 173.847 53.6932C174.995 53.6932 176.022 54.1718 176.934 55.125C177.841 56.0782 178.483 57.3423 178.868 58.9091V59.1136H179.011L179.155 58.9091C180.015 54.8182 181.306 52.7727 183.027 52.7727C183.504 52.7727 183.963 52.9773 184.393 53.3864C184.823 53.7955 185.036 54.135 185.036 54.4091C185.036 54.6136 184.938 54.8877 184.749 55.2273C184.559 55.5668 184.364 55.7386 184.175 55.7386C184.077 55.7386 183.865 55.5873 183.532 55.2805C183.194 54.9736 182.838 54.8182 182.454 54.8182C181.593 54.8182 180.83 56.1805 180.159 58.9091C179.682 60.885 179.109 61.875 178.437 61.875Z" fill="#FFFFFF"/>
    <path fill-rule="evenodd" clip-rule="evenodd" d="M150.467 60.75C149.13 60.75 148.459 59.9646 148.459 58.3977C148.459 56.4873 149.222 54.4787 150.754 52.3637C151.138 51.8196 151.373 51.5455 151.471 51.5455L151.184 52.4659C150.134 54.6464 149.606 56.1805 149.606 57.0682C149.606 58.2955 150.082 58.9091 151.041 58.9091C151.517 58.9091 152.091 58.4305 152.762 57.4773L153.049 57.375V57.5796C152.573 59.6946 151.712 60.75 150.467 60.75Z" fill="#FFFFFF"/>
    <path fill-rule="evenodd" clip-rule="evenodd" d="M127.66 62.0795C127.471 62.0795 127.373 61.875 127.373 61.4659C127.373 61.0568 126.989 60.1691 126.226 58.8068C125.463 57.4445 124.889 56.7614 124.505 56.7614C124.315 56.7614 124.195 56.8145 124.149 56.9168C124.097 57.0191 123.931 57.0682 123.644 57.0682C123.259 57.0682 122.783 56.88 122.21 56.5077C121.636 56.1314 121.349 55.8409 121.349 55.6364C121.349 55.5014 121.59 55.1577 122.066 54.6136C122.542 54.0695 122.829 53.7955 122.927 53.7955C124.074 53.7955 125.124 54.2905 126.082 55.2805C127.041 56.2664 127.66 57.5468 127.947 59.1136C127.947 59.1832 127.993 59.2486 128.09 59.3182V59.2159C128.188 59.1464 128.234 59.0809 128.234 59.0114C128.997 54.9205 130.288 52.875 132.107 52.875C132.583 52.875 133.042 53.0795 133.472 53.4886C133.903 53.8977 134.115 54.2373 134.115 54.5114C134.115 54.7159 134.046 54.99 133.903 55.3295C133.759 55.6691 133.541 55.8409 133.254 55.8409C133.157 55.8409 132.944 55.6895 132.612 55.3827C132.273 55.0759 131.917 54.9205 131.533 54.9205C130.77 54.9205 130.001 56.2827 129.238 59.0114C128.762 61.0568 128.234 62.0795 127.66 62.0795Z" fill="#FFFFFF"/>
    <path fill-rule="evenodd" clip-rule="evenodd" d="M20.5117 9.61365C19.1748 9.61365 18.5035 8.82819 18.5035 7.26138C18.5035 5.35092 19.3183 3.34229 20.942 1.22729C21.3264 0.683194 21.5616 0.409103 21.6592 0.409103C21.6592 0.544103 21.5157 0.850922 21.2289 1.32956C20.2707 3.51001 19.7945 5.0441 19.7945 5.93183C19.7945 7.1591 20.2248 7.77274 21.0854 7.77274C21.6592 7.77274 22.2788 7.33092 22.9501 6.44319L23.237 6.13638V6.44319C22.6633 8.55819 21.7567 9.61365 20.5117 9.61365Z" fill="#FFFFFF"/>
    <path fill-rule="evenodd" clip-rule="evenodd" d="M5.88098 28.4318C5.78344 28.4318 5.73754 27.9205 5.73754 26.8977C5.73754 25.1918 5.38181 22.9091 4.66462 20.0455C3.94743 17.1818 3.58596 15.5782 3.58596 15.2386C3.58596 14.0809 4.06218 13.2259 5.02035 12.6818C5.49656 12.4077 6.35719 12.1377 7.60224 11.8636C7.02848 11.5241 6.55227 11.3523 6.16785 11.3523C5.88098 11.3523 5.5482 11.5405 5.16378 11.9168C4.77937 12.2891 4.54413 12.4773 4.44659 12.4773C4.34905 12.4773 4.30315 12.3055 4.30315 11.9659C4.59003 10.4645 5.20968 9.54409 6.16785 9.20454C5.88098 8.31682 5.38181 7.21227 4.66462 5.88273C3.94743 4.55318 3.44252 3.88636 3.15565 3.88636C2.96631 3.88636 2.82287 3.93955 2.72533 4.04182C2.62779 4.14409 2.43845 4.19318 2.15158 4.19318C1.76716 4.19318 1.3139 4.005 0.79178 3.63273C0.263927 3.25636 0 2.96591 0 2.76136C0 2.69182 0.240977 2.36864 0.717192 1.79182C1.19341 1.21091 1.48028 0.920454 1.57782 0.920454C2.72533 0.920454 3.75235 1.41545 4.66462 2.40545C5.57115 3.39136 6.16785 4.635 6.45473 6.13636L6.59817 6.44318C6.69571 6.44318 6.74161 6.41045 6.74161 6.34091L6.88505 6.13636C7.74568 2.04545 9.03662 0 10.7579 0C11.1423 0 11.5726 0.220909 12.0488 0.666818C12.525 1.10864 12.766 1.43182 12.766 1.63636C12.766 1.84091 12.6685 2.13136 12.4791 2.50773C12.2898 2.88 12.0947 3.06818 11.9054 3.06818C11.8079 3.06818 11.5726 2.89636 11.1882 2.55682C10.8038 2.21727 10.4251 2.04545 10.0407 2.04545C9.2776 2.04545 8.56041 3.44455 7.88912 6.23864C7.5047 7.74 7.17192 8.72591 6.88505 9.20454C7.4588 9.20454 8.29648 9.52773 9.39809 10.1782C10.494 10.8245 11.0448 11.3523 11.0448 11.7614C11.0448 11.8964 10.9013 12.1868 10.6144 12.6327C10.3276 13.0745 10.1382 13.3282 10.0407 13.3977L7.02848 13.9091C5.78344 14.2486 4.92281 14.5923 4.44659 14.9318C4.83101 15.885 5.26132 17.3864 5.73754 19.4318C6.31129 21.7514 6.59817 23.6945 6.59817 25.2614C6.59817 26.1491 6.45473 27.0327 6.16785 27.9205C6.07032 28.26 5.97851 28.4318 5.88098 28.4318Z" fill="#FFFFFF"/>
    <path fill-rule="evenodd" clip-rule="evenodd" d="M93.8088 6.95455C92.8506 6.95455 92.3744 6.37364 92.3744 5.21591C92.3744 3.85364 92.9481 2.42182 94.0957 0.92046L94.526 0.306824H94.6694L94.3825 1.02273C93.6194 2.58955 93.235 3.68182 93.235 4.29546C93.235 5.18319 93.5678 5.62501 94.2391 5.62501C94.6235 5.62501 95.0538 5.28546 95.53 4.60228L95.6735 4.50001V4.60228C95.2891 6.1691 94.6694 6.95455 93.8088 6.95455Z" fill="#FFFFFF"/>
    <path fill-rule="evenodd" clip-rule="evenodd" d="M78.6043 9.30683C78.4149 9.30683 78.3174 9.10228 78.3174 8.69319C78.3174 8.2841 77.933 7.39637 77.1699 6.0341C76.4068 4.67183 75.8789 3.98864 75.592 3.98864C75.3052 3.98864 75.1388 4.04183 75.0929 4.1441C75.0412 4.24637 74.8749 4.29546 74.588 4.29546C74.2036 4.29546 73.7503 4.10728 73.2282 3.73501C72.7003 3.35864 72.4364 3.06819 72.4364 2.86364C72.4364 2.72864 72.6544 2.38501 73.0847 1.84092C73.5151 1.29683 73.8249 1.02273 74.0142 1.02273C75.1617 1.02273 76.1888 1.51773 77.101 2.50773C78.0076 3.49364 78.6043 4.7741 78.8911 6.34092C78.9887 6.41046 79.0346 6.45955 79.0346 6.49637C79.0346 6.5291 79.0575 6.54546 79.1092 6.54546C79.1551 6.54546 79.178 6.51273 79.178 6.44319V6.23864C80.0386 2.14773 81.3296 0.10228 83.0508 0.10228C83.5271 0.10228 83.9861 0.306825 84.4164 0.715916C84.8467 1.12501 85.059 1.46455 85.059 1.73864C85.059 1.94319 84.9901 2.21728 84.8467 2.55683C84.7033 2.89637 84.5311 3.06819 84.3418 3.06819C84.1525 3.06819 83.8885 2.91683 83.5558 2.61001C83.2172 2.30319 82.8615 2.14773 82.4771 2.14773C81.714 2.14773 80.9968 3.51001 80.3255 6.23864C79.7518 8.2841 79.178 9.30683 78.6043 9.30683Z" fill="#FFFFFF"/>
    <path fill-rule="evenodd" clip-rule="evenodd" d="M69.4242 35.8977C67.2267 35.8977 66.1251 35.2514 66.1251 33.9546C66.1251 32.9318 66.6989 31.9623 67.8464 31.0418C68.9939 30.1214 70.1873 29.2173 71.4323 28.3296L71.5758 28.125C71.5758 28.0555 71.4323 27.99 71.1455 27.9205C70.2848 27.6464 69.3783 27.5114 68.4201 27.5114C67.8464 27.5114 67.2267 27.6464 66.5554 27.9205H66.2686V27.7159C66.7448 26.9673 67.2038 26.4723 67.6341 26.235C68.0644 25.9937 68.8046 25.875 69.8545 25.875C72.2471 25.875 73.4405 26.2841 73.4405 27.1023C73.4405 27.7159 72.6774 28.6037 71.1455 29.7614L70.2848 30.4773C69.5217 31.0214 68.8275 31.5327 68.2078 32.0114C67.5825 32.49 67.2726 32.8991 67.2726 33.2387C67.2726 33.9218 68.3742 34.2614 70.5717 34.2614C72.5799 34.2614 74.7314 34.0241 77.0264 33.5455L78.0305 33.4432C78.0305 33.5127 77.7895 33.6805 77.3133 33.9546C75.3052 35.2514 72.6774 35.8977 69.4242 35.8977Z" fill="#FFFFFF"/>
    <path fill-rule="evenodd" clip-rule="evenodd" d="M100.407 47.8637H100.263C100.263 47.7941 100.694 47.6264 101.554 47.3523C104.039 46.6691 107.866 45.4418 113.029 43.6705C116.759 42.2387 119.1 40.9787 120.058 39.8864C121.303 38.1805 122.066 37.3296 122.353 37.3296L122.64 37.4318C123.403 36.3396 124.264 35.7955 125.222 35.7955C125.795 35.7955 126.346 36.0532 126.874 36.5646C127.396 37.0759 127.66 37.6691 127.66 38.3523L127.517 39.1705C127.23 40.2627 126.754 40.8068 126.082 40.8068C125.509 40.8068 124.768 40.5859 123.862 40.1441C122.95 39.6982 122.255 39.3055 121.779 38.9659C120.821 41.3509 118.05 43.4659 113.46 45.3068C111.354 46.0555 110.063 46.4318 109.587 46.4318L106.001 47.0455C102.656 47.5896 100.791 47.8637 100.407 47.8637ZM126.513 39.0682V38.7614C126.415 38.5568 126.203 38.3032 125.87 37.9964C125.532 37.6896 125.222 37.5341 124.935 37.5341C124.361 37.5341 123.931 37.7059 123.644 38.0455C124.218 38.385 125.032 38.7287 126.082 39.0682H126.513Z" fill="#FFFFFF"/>
    <path fill-rule="evenodd" clip-rule="evenodd" d="M144.586 37.3296C143.536 37.3296 142.698 37.1414 142.079 36.7691C141.453 36.3927 141.143 35.9305 141.143 35.3864C141.143 34.3636 141.763 33.3736 143.008 32.4205C145.401 30.5796 146.594 29.6264 146.594 29.5568C146.594 29.4218 146.451 29.3196 146.164 29.25C145.303 29.0455 144.397 28.9432 143.438 28.9432C142.865 28.9432 142.245 29.0455 141.574 29.25L141.287 29.3523L141.43 29.0455C141.815 28.3623 142.245 27.9041 142.721 27.6668C143.197 27.4255 143.966 27.3068 145.016 27.3068C147.409 27.3068 148.602 27.7159 148.602 28.5341C148.602 29.1477 147.839 30.0355 146.307 31.1932C145.831 31.4673 145.326 31.8068 144.804 32.2159C144.276 32.625 143.725 33.0505 143.152 33.4964C142.578 33.9382 142.291 34.3309 142.291 34.6705C142.291 35.3536 143.393 35.6932 145.59 35.6932C147.598 35.6932 149.796 35.4559 152.188 34.9773L153.049 34.875L152.332 35.3864C150.323 36.6832 147.742 37.3296 144.586 37.3296Z" fill="#FFFFFF"/>
    <path fill-rule="evenodd" clip-rule="evenodd" d="M251.304 19.8409C249.967 19.8409 249.296 19.26 249.296 18.1023C249.296 17.2145 250.059 15.4432 251.591 12.7841C252.452 11.2173 252.882 9.85092 252.882 8.69319C252.882 6.78273 252.165 5.14637 250.73 3.7841C250.541 3.57955 249.68 2.93319 248.149 1.84092C248.051 1.77137 248.005 1.6691 248.005 1.5341C248.005 1.46455 248.172 1.21091 248.51 0.769094C248.843 0.323184 249.055 0.10228 249.153 0.10228L249.296 0.204552C251.78 1.63637 253.312 3.71455 253.886 6.44319C253.984 6.85228 254.03 7.2941 254.03 7.77273C254.03 9.61364 253.502 11.3196 252.452 12.8864C254.46 13.9091 255.464 14.8991 255.464 15.8523C255.464 17.2145 255.223 18.0695 254.747 18.4091C253.886 19.3623 252.739 19.8409 251.304 19.8409ZM251.304 17.8977C251.878 17.8977 252.498 17.7627 253.169 17.4886C253.84 17.2145 254.316 16.9445 254.603 16.6705C254.603 16.2614 253.553 15.6477 251.448 14.8295C250.776 15.7173 250.444 16.4986 250.444 17.1818C250.444 17.6605 250.73 17.8977 251.304 17.8977Z" fill="#FFFFFF"/>
    <path fill-rule="evenodd" clip-rule="evenodd" d="M232.227 28.6364C232.129 28.6364 232.083 28.125 232.083 27.1023C232.083 25.3964 231.751 23.1136 231.079 20.25C230.408 17.3864 230.075 15.7827 230.075 15.4432C230.075 14.2855 230.506 13.4305 231.366 12.8864C231.843 12.6123 232.703 12.3423 233.948 12.0682C233.472 11.7286 232.99 11.5568 232.514 11.5568C232.227 11.5568 231.894 11.745 231.51 12.1214C231.125 12.4936 230.89 12.6818 230.793 12.6818V12.1705C230.982 10.6691 231.556 9.78546 232.514 9.51137C232.227 8.55819 231.728 7.41682 231.011 6.08728C230.293 4.75773 229.788 4.09091 229.502 4.09091C229.312 4.09091 229.192 4.1441 229.146 4.24637C229.094 4.34864 228.882 4.39773 228.498 4.39773C228.211 4.39773 227.78 4.20955 227.207 3.83728C226.633 3.46091 226.346 3.17046 226.346 2.96591C226.346 2.89637 226.587 2.57319 227.063 1.99637C227.539 1.41546 227.826 1.12501 227.924 1.12501C229.071 1.12501 230.098 1.62001 231.011 2.61001C231.917 3.59591 232.56 4.83955 232.944 6.34091V6.64773H233.088L234.522 2.25001C235.285 0.953187 236.146 0.306824 237.104 0.306824C237.58 0.306824 238.039 0.511369 238.469 0.92046C238.9 1.32955 239.112 1.63637 239.112 1.84091C239.112 2.04546 239.014 2.33591 238.825 2.71228C238.636 3.08455 238.441 3.27273 238.251 3.27273C238.154 3.27273 237.942 3.12137 237.609 2.81455C237.27 2.50773 236.914 2.35228 236.53 2.35228C235.669 2.35228 234.906 3.71455 234.235 6.44319C233.851 7.94455 233.518 8.93046 233.231 9.4091C233.902 9.4091 234.74 9.71591 235.744 10.3296C236.748 10.9432 237.345 11.4546 237.534 11.8636C237.534 11.9986 237.368 12.3055 237.035 12.7841C236.696 13.2627 236.484 13.5327 236.387 13.6023C233.42 14.0809 231.556 14.5923 230.793 15.1364C231.269 16.0895 231.699 17.5909 232.083 19.6364C232.657 21.9559 232.944 23.8991 232.944 25.4659C232.944 26.3536 232.801 27.2373 232.514 28.125C232.416 28.4645 232.324 28.6364 232.227 28.6364Z" fill="#FFFFFF"/>
    <path fill-rule="evenodd" clip-rule="evenodd" d="M237.534 33.4432L237.391 33.3409L242.411 30.9886L245.853 28.2273C248.533 25.9773 251.115 24.8523 253.599 24.8523C253.886 24.8523 254.316 24.9218 254.89 25.0568C255.464 25.1918 255.94 25.2614 256.325 25.2614C257.088 25.2614 257.638 25.0895 257.977 24.75C258.31 24.4105 258.574 24.1364 258.763 23.9318C258.952 23.7273 259.147 23.5227 259.337 23.3182C259.526 23.1136 259.767 23.0114 260.054 23.0114C260.151 23.0114 260.197 23.0809 260.197 23.2159C260.197 23.3509 260.054 23.6577 259.767 24.1364C259.767 24.3409 260.484 24.4432 261.919 24.4432C262.108 24.4432 262.205 24.4105 262.205 24.3409L261.919 23.4205C261.919 23.2855 262.062 23.0645 262.349 22.7577C262.636 22.4509 262.825 22.2955 262.923 22.2955C263.307 22.5 263.496 22.8764 263.496 23.4205C263.496 23.8991 263.353 24.4268 263.066 25.0077C262.779 25.5845 262.492 25.9445 262.205 26.0795C261.919 26.2145 261.586 26.2841 261.201 26.2841C260.53 26.2841 259.767 26.1491 258.906 25.875C257.759 26.7627 256.565 27.2045 255.32 27.2045C255.034 27.2045 254.603 27.135 254.029 27C253.456 26.865 253.071 26.7955 252.882 26.7955C250.874 26.7955 248.82 27.4786 246.714 28.8409L242.124 32.0114C241.263 32.49 240.305 32.8459 239.255 33.0873C238.205 33.3245 237.632 33.4432 237.534 33.4432Z" fill="#FFFFFF"/>
    <path fill-rule="evenodd" clip-rule="evenodd" d="M38.8718 31.8068C39.0612 31.1932 39.3997 30.5468 39.8759 29.8636C48.5797 27.6136 53.0263 26.4886 53.2157 26.4886H53.3591L53.2157 26.7955C52.9288 27.4786 52.6419 27.8877 52.355 28.0227C48.4363 28.9759 43.9381 30.24 38.8718 31.8068Z" fill="#FFFFFF"/>
    <path fill-rule="evenodd" clip-rule="evenodd" d="M37.7244 11.9659C37.1506 11.9659 36.6514 11.7614 36.2211 11.3523C35.7908 10.9432 35.5728 10.3295 35.5728 9.51136V7.77273C35.5728 7.63773 35.4294 7.53546 35.1425 7.46591C34.8556 7.39636 34.7122 7.26136 34.7122 7.05682C34.7122 6.64773 34.9531 6.27136 35.4294 5.93182C35.9056 5.59227 36.2441 5.42046 36.4334 5.42046C36.7203 5.42046 36.8637 5.79682 36.8637 6.54546C36.8637 6.95455 36.8178 7.29409 36.7203 7.56818C36.6228 7.84227 36.5769 8.07955 36.5769 8.28409C36.5769 8.69318 36.7203 9.10227 37.0072 9.51136C37.2941 9.92046 37.6268 10.125 38.0112 10.125C38.585 10.125 39.1129 9.95318 39.5891 9.61364C40.0653 9.27409 40.3063 8.865 40.3063 8.38636C40.3063 8.11227 40.1858 7.63773 39.9505 6.95455C39.7096 6.27136 39.5891 5.86227 39.5891 5.72727C39.5891 5.59227 39.6866 5.37136 39.8759 5.06455C40.0653 4.75773 40.2087 4.60227 40.3063 4.60227C40.4956 4.60227 40.7595 5.04409 41.098 5.93182C41.4308 6.81955 41.5972 7.46591 41.5972 7.875C41.5972 9.10227 42.2169 9.71591 43.4619 9.71591C44.0357 9.71591 44.4201 9.51136 44.6094 9.10227C43.4619 7.67046 42.8882 6.57818 42.8882 5.82955C42.8882 5.42046 43.0086 5.06455 43.2496 4.75773C43.4849 4.45091 43.6512 4.29546 43.7488 4.29546C43.8463 4.29546 43.9152 4.46727 43.9668 4.80682C44.0127 5.14636 44.0586 5.38773 44.1102 5.52273C44.1561 5.65773 44.2766 5.88273 44.466 6.18955C44.6553 6.49636 44.8733 6.885 45.1143 7.36364C45.3496 7.84227 45.47 8.25136 45.47 8.59091C45.47 9.135 45.2807 9.74864 44.8963 10.4318C44.5119 11.115 43.9381 11.4545 43.175 11.4545C42.0275 11.4545 41.2128 10.9105 40.7366 9.81818C40.1628 11.25 39.1588 11.9659 37.7244 11.9659Z" fill="#FFFFFF"/>
    <path fill-rule="evenodd" clip-rule="evenodd" d="M67.5596 62.7954C67.8464 62.2514 68.2768 61.6377 68.8505 60.9545L87.7844 57.0682L87.641 57.4773C87.2565 58.0909 86.9238 58.4673 86.6369 58.6023C81.2838 59.6945 74.9208 61.0895 67.5596 62.7954Z" fill="#FFFFFF"/>
    <path fill-rule="evenodd" clip-rule="evenodd" d="M89.649 20.7614C89.5515 20.7614 89.5056 20.6591 89.5056 20.4545V20.1477C89.6949 19.7386 89.7924 19.2273 89.7924 18.6136C89.7924 16.5682 88.1687 14.5555 84.9155 12.5795C84.818 12.51 84.7721 12.4077 84.7721 12.2727L85.9196 10.8409L86.063 10.9432C89.2187 12.5795 90.7965 14.8295 90.7965 17.6932C90.7965 18.6464 90.6072 19.5014 90.2228 20.25C90.0334 20.5895 89.8383 20.7614 89.649 20.7614Z" fill="#FFFFFF"/>
    <path fill-rule="evenodd" clip-rule="evenodd" d="M98.2553 14.625C97.1078 14.625 96.5341 14.2486 96.5341 13.5C96.5341 12.8864 96.9873 12.0355 97.8996 10.9432C98.8061 9.85091 99.5922 9.30682 100.263 9.30682C100.837 9.30682 101.342 9.47864 101.772 9.81819C102.203 10.1577 102.415 10.6036 102.415 11.1477C102.415 11.9659 102.008 12.7514 101.199 13.5C100.384 14.2486 99.4028 14.625 98.2553 14.625ZM99.1159 12.9886C100.648 12.9886 101.411 12.6818 101.411 12.0682C101.411 11.3196 100.694 10.9432 99.2594 10.9432C98.9725 10.9432 98.5881 11.1805 98.1119 11.6591C97.6357 12.1377 97.3947 12.4446 97.3947 12.5796C97.584 12.8536 98.1578 12.9886 99.1159 12.9886Z" fill="#FFFFFF"/>
    <path fill-rule="evenodd" clip-rule="evenodd" d="M88.2146 27.1023C88.4039 26.4886 88.7425 25.8055 89.2187 25.0568C93.1374 24.1036 97.4406 23.0114 102.128 21.7841H102.702L102.558 22.0909C102.272 22.7741 101.985 23.1832 101.698 23.3182C97.7791 24.2714 93.2808 25.5355 88.2146 27.1023Z" fill="#FFFFFF"/>
    <path fill-rule="evenodd" clip-rule="evenodd" d="M114.177 11.6591C113.603 11.6591 113.104 11.4382 112.674 10.9964C112.243 10.5504 112.025 9.95318 112.025 9.20454V7.4659C112.025 7.3309 111.882 7.22863 111.595 7.15909C111.308 7.08954 111.165 6.92181 111.165 6.64772C111.165 6.30818 111.383 5.94818 111.813 5.5759C112.243 5.19954 112.599 5.01136 112.886 5.01136C113.173 5.01136 113.316 5.42045 113.316 6.23863L113.029 7.97727C113.029 8.38636 113.15 8.79545 113.391 9.20454C113.626 9.61363 113.988 9.81818 114.464 9.81818C114.94 9.81818 115.445 9.64636 115.973 9.30681C116.495 8.96727 116.759 8.55818 116.759 8.07954L116.042 5.42045C116.042 5.28545 116.139 5.06454 116.329 4.75772C116.518 4.4509 116.661 4.29545 116.759 4.29545C116.948 4.29545 117.189 4.7209 117.476 5.5759C117.763 6.42681 117.906 7.08954 117.906 7.56818C117.906 8.79545 118.578 9.40909 119.915 9.40909C120.488 9.40909 120.821 9.20454 120.919 8.79545C119.869 7.36363 119.341 6.27136 119.341 5.52272C119.341 5.04409 119.461 4.67181 119.702 4.39772C119.937 4.12363 120.104 3.98863 120.201 3.98863C120.299 3.98863 120.368 4.16045 120.419 4.5C120.465 4.83954 120.511 5.0809 120.563 5.2159C120.609 5.3509 120.919 5.89909 121.492 6.85227C121.779 7.4659 121.923 7.90772 121.923 8.18181C121.923 8.79545 121.733 9.44181 121.349 10.125C120.965 10.8082 120.391 11.1477 119.628 11.1477C118.48 11.1477 117.665 10.6036 117.189 9.51136C116.615 10.9432 115.611 11.6591 114.177 11.6591Z" fill="#FFFFFF"/>
    <path fill-rule="evenodd" clip-rule="evenodd" d="M159.36 9.61365C158.023 9.61365 157.352 8.82819 157.352 7.26138C157.352 5.28547 158.115 3.24001 159.647 1.12501C160.031 0.646376 160.267 0.409103 160.364 0.409103L160.077 1.22729C159.027 3.47729 158.5 5.0441 158.5 5.93183C158.5 7.08956 158.976 7.67047 159.934 7.67047C160.41 7.67047 160.984 7.22865 161.655 6.34092L161.942 6.13638V6.34092C161.466 8.52138 160.605 9.61365 159.36 9.61365Z" fill="#FFFFFF"/>
    <path fill-rule="evenodd" clip-rule="evenodd" d="M162.372 24.9545V24.8523L165.241 23.5227C168.397 22.4305 170.881 21.2727 172.7 20.0455C171.265 19.8409 170.548 19.3991 170.548 18.7159C170.548 18.1718 170.738 17.6605 171.122 17.1818L170.979 16.6705C170.979 15.9218 171.455 15.5455 172.413 15.5455C172.797 15.5455 173.228 15.615 173.704 15.75C175.425 16.4332 176.573 17.2514 177.146 18.2045C177.244 18.2741 177.29 18.3764 177.29 18.5114C177.29 18.8509 177.124 19.2436 176.791 19.6895C176.452 20.1314 176.142 20.3523 175.856 20.3523L173.561 20.1477C171.937 21.7145 169.734 22.9091 166.962 23.7273L163.09 24.75C162.803 24.885 162.562 24.9545 162.372 24.9545ZM176.286 19.125L176.142 18.8182C175.758 18.2741 175.138 17.865 174.278 17.5909C174.278 18.135 174.18 18.5809 173.991 18.9205C174.088 18.99 174.806 19.0555 176.142 19.125H176.286ZM173.274 18.8182L173.417 18.4091C173.417 18.2045 173.371 17.9673 173.274 17.6932C173.176 17.4191 172.987 17.2841 172.7 17.2841C172.511 17.2841 172.247 17.4027 171.914 17.6441C171.575 17.8814 171.409 18.0695 171.409 18.2045C171.409 18.5441 172.029 18.7486 173.274 18.8182Z" fill="#FFFFFF"/>
    <path fill-rule="evenodd" clip-rule="evenodd" d="M158.356 55.2273C158.545 54.6832 158.884 54.0327 159.36 53.2841L177.433 48.5796H178.007L177.864 48.8864C177.479 49.5 177.192 49.8764 177.003 50.0114C171.65 51.3737 165.43 53.1123 158.356 55.2273Z" fill="#FFFFFF"/>
    <path fill-rule="evenodd" clip-rule="evenodd" d="M184.749 16.9773C184.175 16.9773 183.676 16.7564 183.246 16.3146C182.815 15.8686 182.597 15.2714 182.597 14.5227V12.7841C182.597 12.6491 182.454 12.5468 182.167 12.4773C181.88 12.4077 181.737 12.24 181.737 11.9659C181.737 11.6264 181.978 11.2664 182.454 10.8941C182.93 10.5177 183.268 10.3296 183.458 10.3296C183.745 10.3296 183.888 10.7386 183.888 11.5568C183.888 11.9659 183.842 12.3055 183.745 12.5796C183.647 12.8536 183.601 13.0909 183.601 13.2955C183.601 13.7046 183.745 14.1136 184.032 14.5227C184.318 14.9318 184.651 15.1364 185.036 15.1364C185.609 15.1364 186.137 14.9646 186.613 14.625C187.09 14.2855 187.331 13.8764 187.331 13.3977C187.331 13.1236 187.21 12.6491 186.975 11.9659C186.734 11.2827 186.613 10.8736 186.613 10.7386C186.613 10.6036 186.711 10.3827 186.9 10.0759C187.09 9.7691 187.233 9.61364 187.331 9.61364C187.52 9.61364 187.784 10.0555 188.122 10.9432C188.455 11.8309 188.622 12.4773 188.622 12.8864V13.0909C188.622 14.1832 189.241 14.7273 190.486 14.7273C191.06 14.7273 191.444 14.5227 191.634 14.1136C190.486 12.6818 189.913 11.5896 189.913 10.8409C189.913 10.3623 190.033 9.99001 190.274 9.71591C190.509 9.44182 190.676 9.30682 190.773 9.30682C190.871 9.30682 190.94 9.47864 190.991 9.81819C191.037 10.1577 191.106 10.4646 191.204 10.7386L192.064 12.2727C192.351 12.8168 192.494 13.2259 192.494 13.5C192.494 14.1136 192.305 14.76 191.921 15.4432C191.536 16.1264 190.963 16.4659 190.199 16.4659C189.052 16.4659 188.237 15.9218 187.761 14.8296C187.187 16.2614 186.183 16.9773 184.749 16.9773Z" fill="#FFFFFF"/>
    <path fill-rule="evenodd" clip-rule="evenodd" d="M225.629 62.4886C225.916 61.9445 226.392 61.3309 227.063 60.6477C230.89 59.4205 235.91 58.1236 242.124 56.7614C247.385 55.6691 250.346 55.125 251.017 55.125C251.207 55.125 251.304 55.1577 251.304 55.2273C251.304 55.3623 251.115 55.6036 250.73 55.9432C250.346 56.2827 250.059 56.4873 249.87 56.5568C248.051 56.8309 244.563 57.5795 239.399 58.8068C233.661 60.2386 229.071 61.4659 225.629 62.4886Z" fill="#FFFFFF"/>
    <path fill-rule="evenodd" clip-rule="evenodd" d="M255.894 59.1136C256.181 58.5695 256.657 57.9559 257.329 57.2727C261.345 56.1805 266.509 55.0923 272.82 54C277.984 53.1123 280.996 52.6705 281.857 52.6705C281.954 52.6705 282 52.7032 282 52.7727C282 52.9077 281.811 53.1491 281.426 53.4886C281.042 53.8282 280.755 54 280.566 54C278.747 54.2741 275.212 54.9205 269.951 55.9432C264.024 57.1705 259.337 58.2259 255.894 59.1136Z" fill="#FFFFFF"/>
    <path fill-rule="evenodd" clip-rule="evenodd" d="M66.4121 42.75L66.2686 42.6477C64.7367 41.8296 63.1589 41.0441 61.5352 40.2955L63.3999 37.2273C63.5892 37.0227 63.7326 36.9205 63.8302 36.9205C64.0195 36.9205 64.8801 37.3132 66.4121 38.0987C67.944 38.88 68.7071 39.3055 68.7071 39.375C68.7071 39.9191 68.0358 40.9787 66.6989 42.5455L66.4121 42.75Z" fill="#FFFFFF"/>
    <path fill-rule="evenodd" clip-rule="evenodd" d="M273.107 51.3409H272.963C271.432 50.4532 269.854 49.6718 268.23 48.9886V48.8864L270.095 45.8182C270.284 45.6832 270.427 45.6136 270.525 45.6136C270.714 45.6136 271.575 45.99 273.107 46.7386C274.639 47.4873 275.402 47.9332 275.402 48.0682C275.402 48.5468 274.731 49.5696 273.394 51.1364C273.296 51.2714 273.204 51.3409 273.107 51.3409Z" fill="#FFFFFF"/>
    <path fill-rule="evenodd" clip-rule="evenodd" d="M22.5199 23.4205C23.7649 24.5127 25.4862 25.0568 27.6837 25.0568C29.8811 25.0568 32.945 24.5782 36.8637 23.625C38.4874 23.2159 42.0275 22.2259 47.4782 20.6591L36.0031 18.2046C35.6187 18.135 35.24 18.2373 34.8556 18.5114C34.5687 18.7159 34.0925 18.8182 33.4212 18.8182C31.6024 18.7487 29.0205 18.6137 25.6755 18.4091C25.0042 18.4091 24.6715 18.2741 24.6715 18C24.6715 17.865 24.8149 17.6605 25.1018 17.3864L27.1099 14.7273C27.3968 14.3182 27.7296 14.1137 28.114 14.1137C30.5065 13.8396 33.3237 13.7046 36.5768 13.7046L43.4619 15.3409C48.4363 16.4987 51.9248 17.2514 53.9329 17.5909C55.941 17.9305 58.9073 18.3068 62.8261 18.7159C66.5555 19.125 68.6612 19.3296 69.1374 19.3296C69.4243 19.3296 69.6136 19.3623 69.7111 19.4318C69.9005 19.5014 69.8546 19.6691 69.5677 19.9432L67.4161 22.7046C67.2268 22.9787 66.9399 23.1137 66.5555 23.1137C66.0793 23.1137 65.0752 23.0441 63.5433 22.9091C62.1089 22.7741 60.8179 22.7046 59.6704 22.7046C56.1304 22.7046 52.1657 23.2855 47.765 24.4432C45.6594 25.1264 43.5594 25.7727 41.4538 26.3864C40.0194 26.7955 38.585 27.2373 37.1506 27.7159C33.2319 28.8082 30.0762 29.3523 27.6837 29.3523C25.1018 29.3523 23.0477 28.8409 21.5158 27.8182C20.6552 27.2046 19.7945 26.2146 18.9339 24.8523C18.2626 23.76 17.6889 23.2159 17.2127 23.2159C16.4496 23.2159 15.3021 23.7968 13.7701 24.9546C12.1464 26.1818 11.3317 27.2046 11.3317 28.0227C11.3317 28.7714 11.8079 29.5241 12.7661 30.2727C14.5849 29.6591 16.6389 29.3523 18.9339 29.3523C20.6552 29.3523 21.992 29.8637 22.9502 30.8864C24.0002 31.9787 24.528 33.3409 24.528 34.9773C24.528 36.4091 24.0977 37.5668 23.2371 38.4546C22.3764 39.4077 21.2748 39.8864 19.938 39.8864C17.9298 39.8864 16.0651 39.24 14.3439 37.9432C13.007 36.9205 11.9513 35.6237 11.1882 34.0568C8.13013 35.0796 6.59821 36.8877 6.59821 39.4773C6.59821 40.7741 7.12606 43.0241 8.17603 46.2273C8.56045 47.3196 8.93912 48.4446 9.32354 49.6023L10.1842 51.8523C11.0448 55.26 11.3317 57.7841 11.0448 59.4205C10.7579 60.9218 10.5169 61.6705 10.3276 61.6705C10.1383 61.6705 9.99483 60.9218 9.89729 59.4205C9.79976 58.5327 9.56452 57.1705 9.1801 55.3296C6.40887 47.9659 5.02039 43.0241 5.02039 40.5C5.02039 36 6.64411 32.8991 9.89729 31.1932C9.42108 30.1009 9.226 29.2173 9.32354 28.5341C9.70795 25.875 10.9473 23.5555 13.0529 21.5796C14.9635 19.8082 16.7364 18.9205 18.3602 18.9205C18.9339 18.9205 19.5536 19.4318 20.2249 20.4546C21.0855 21.8864 21.8486 22.8764 22.5199 23.4205ZM20.0814 35.2841C20.8445 35.2841 21.2289 35.1491 21.2289 34.875C21.2289 34.3964 20.7011 33.9873 19.6511 33.6477C19.1749 33.4432 18.4061 33.3409 17.3561 33.3409L15.6348 33.4432C16.593 34.6009 18.0733 35.2146 20.0814 35.2841Z" fill="#00A2B5"/>
    <path fill-rule="evenodd" clip-rule="evenodd" d="M184.892 47.0455C181.352 47.0455 178.868 45.8182 177.433 43.3636C176.67 42.0014 176.286 40.3977 176.286 38.5568C176.286 36.1718 176.716 33.9218 177.577 31.8068C177.766 31.2627 177.864 30.8864 177.864 30.6818C177.864 30.5468 177.818 30.4773 177.72 30.4773C177.623 30.4773 177.29 30.7841 176.716 31.3977C175.953 32.2855 175.138 34.0568 174.278 36.7159C173.13 40.2627 172.367 42.3736 171.983 43.0568C171.507 44.0796 170.881 44.865 170.118 45.4091C169.355 45.9532 168.73 46.2273 168.253 46.2273C165.958 46.2273 164.191 45.2046 162.946 43.1591C161.988 41.4532 161.512 39.375 161.512 36.9205C161.512 35.2841 161.844 33.4759 162.516 31.5C162.9 30.6818 163.187 30.2727 163.376 30.2727C163.474 30.2727 163.52 30.4077 163.52 30.6818L163.376 31.6023C162.992 33.1036 162.803 34.4659 162.803 35.6932C162.803 40.6023 164.237 43.0568 167.106 43.0568C168.351 43.0568 169.355 42.4105 170.118 41.1136C170.692 40.2955 171.311 38.7286 171.983 36.4091C172.843 33.8196 173.584 31.8927 174.209 30.6327C174.829 29.3686 175.666 28.1782 176.716 27.0532C177.766 25.9282 178.678 25.3636 179.442 25.3636C180.113 25.3636 180.446 25.8423 180.446 26.7955C180.446 27.6136 180.113 29.2664 179.442 31.7577C178.77 34.245 178.437 35.9305 178.437 36.8182C178.437 38.6591 178.988 40.0909 180.09 41.1136C181.186 42.1364 182.695 42.6477 184.605 42.6477C188.145 42.6477 190.773 41.8623 192.494 40.2955C193.929 39.0682 194.646 37.5668 194.646 35.7955C194.646 32.9318 194.026 30.1705 192.781 27.5114L192.208 26.1818C192.208 25.2286 192.684 23.8623 193.642 22.0909C193.831 21.7514 193.975 21.5796 194.072 21.5796C194.17 21.5796 194.405 21.8168 194.789 22.2955C196.034 24.2059 197.039 27.1718 197.802 31.1932C198.565 34.875 199.597 37.5177 200.888 39.1214C202.179 40.7209 204.21 41.5227 206.982 41.5227C209.277 41.5227 210.757 40.9418 211.428 39.7841C211.428 39.375 210.952 38.5241 209.994 37.2273C207.601 33.885 206.024 30.4077 205.26 26.7955C205.071 25.5682 204.733 24.6805 204.256 24.1364L205.547 21.375C205.737 21.0355 205.932 20.8636 206.121 20.8636C206.219 20.8636 206.454 21.0355 206.838 21.375C209.994 24.4432 211.572 26.2514 211.572 26.7955C211.572 26.9305 211.474 27 211.285 27C210.9 27 210.183 26.7627 209.133 26.2841C209.036 26.2841 208.944 26.3536 208.846 26.4886L210.568 30.2727C212.386 34.0241 213.293 36.7486 213.293 38.4546C213.293 40.1605 212.96 41.625 212.289 42.8523C211.141 45.0327 209.087 46.125 206.121 46.125C203.063 46.125 200.625 45.1718 198.806 43.2614C197.756 42.1036 196.798 40.365 195.937 38.0455C195.553 40.365 194.548 42.3409 192.925 43.9773C190.819 46.0227 188.145 47.0455 184.892 47.0455Z" fill="#00A2B5"/>
    <path fill-rule="evenodd" clip-rule="evenodd" d="M218.313 47.25V45.5114C218.503 44.3536 218.6 42.9873 218.6 41.4205C218.6 40.0582 218.101 34.3473 217.097 24.2918C216.093 14.2323 215.588 8.5582 215.588 7.26138C215.588 5.96456 215.301 4.87638 214.727 3.98865C214.727 3.44456 215.301 2.21729 216.449 0.306833C216.546 0.102288 216.638 1.52588e-05 216.736 1.52588e-05C217.022 1.52588e-05 217.958 1.48502 219.535 4.45092C221.113 7.41683 221.899 9.13501 221.899 9.61365C221.899 9.8182 221.802 9.92047 221.612 9.92047C221.228 9.92047 220.465 9.44183 219.317 8.48865L219.174 8.38638C219.076 8.38638 219.031 8.52138 219.031 8.79547C219.031 8.86501 219.461 13.2955 220.322 22.0909C221.182 30.8864 221.612 35.8282 221.612 36.9205C221.612 40.3282 220.895 43.2941 219.461 45.8182C218.985 46.7714 218.6 47.25 218.313 47.25Z" fill="#00A2B5"/>
    <path fill-rule="evenodd" clip-rule="evenodd" d="M268.66 37.5341C269.521 38.1477 270.668 38.4545 272.103 38.4545C274.874 38.4545 276.647 37.8736 277.41 36.7159C277.41 36.3068 276.934 35.4559 275.976 34.1591C274.731 32.4532 273.87 31.0582 273.394 29.9659C272.344 27.7159 271.627 25.6377 271.242 23.7273C271.053 22.9786 270.955 22.5 270.955 22.2955C270.766 21.8864 270.479 21.4773 270.095 21.0682L271.386 18.3068C271.672 17.9673 271.862 17.7955 271.959 17.7955C272.149 17.7955 272.436 17.9673 272.82 18.3068C274.352 19.8736 275.689 21.3055 276.836 22.6023C277.312 23.1464 277.553 23.5227 277.553 23.7273C277.553 23.8623 277.41 23.9318 277.123 23.9318C276.739 23.9318 276.021 23.6945 274.972 23.2159C274.874 23.2159 274.782 23.2855 274.685 23.4205C275.069 24.3082 275.689 25.6009 276.549 27.3068C278.368 30.9886 279.275 33.6805 279.275 35.3864C279.275 36.8877 278.747 38.385 277.697 39.8864C276.36 41.8623 274.495 42.8523 272.103 42.8523C268.947 42.8523 266.75 41.4532 265.505 38.6591C265.315 38.3195 265.12 38.3195 264.931 38.6591C263.21 41.8623 260.725 43.4659 257.472 43.4659C254.219 43.4659 252.308 42.0014 251.734 39.0682L251.591 38.7614C251.494 38.7614 251.35 38.8636 251.161 39.0682C250.398 40.0214 249.25 40.9786 247.718 41.9318C245.326 43.4332 242.939 44.1818 240.546 44.1818C238.923 44.1818 237.534 43.6705 236.387 42.6477C235.813 42.1036 235.05 41.1464 234.092 39.7841C233.42 38.7614 232.898 38.25 232.514 38.25C231.751 38.25 230.603 38.8309 229.071 39.9886C227.447 41.1464 226.633 42.1691 226.633 43.0568C226.633 43.8055 227.161 44.5582 228.211 45.3068C230.603 44.6932 232.611 44.3864 234.235 44.3864C235.956 44.3864 237.345 44.8977 238.395 45.9205C239.445 47.0127 239.973 48.375 239.973 50.0114C239.973 51.4432 239.542 52.6009 238.682 53.4886C237.821 54.4418 236.673 54.9205 235.239 54.9205C233.328 54.9205 231.464 54.2373 229.645 52.875C228.308 51.9218 227.304 50.8623 226.633 49.7045C223.288 50.5923 219.507 52.2614 215.301 54.7159L205.834 60.1364C203.539 61.4332 201.433 62.0795 199.523 62.0795C197.515 62.0795 195.793 61.4332 194.359 60.1364C192.735 58.7741 191.921 57.1009 191.921 55.125C191.921 52.4659 193.453 48.9886 196.511 44.6932C196.895 44.2841 197.182 44.0795 197.371 44.0795V44.1818C197.371 44.6605 196.7 46.1577 195.363 48.6818C194.026 51.2714 193.355 53.3168 193.355 54.8182C193.355 55.9105 193.739 56.8309 194.503 57.5795C195.363 58.3282 196.465 58.7045 197.802 58.7045C200.097 58.7045 202.294 58.1604 204.4 57.0682C206.884 55.5014 209.374 53.9673 211.859 52.4659C216.351 49.7373 220.849 47.6591 225.342 46.2273C224.866 45.135 224.671 44.2514 224.768 43.5682C225.055 40.9091 226.3 38.5895 228.497 36.6136C230.408 34.8423 232.181 33.9545 233.805 33.9545C234.378 33.9545 234.998 34.4659 235.669 35.4886C236.719 36.99 237.437 37.9432 237.821 38.3523C238.871 39.375 240.162 39.8864 241.694 39.8864C244.178 39.8864 246.571 39.24 248.866 37.9432C249.055 37.8082 249.967 37.125 251.591 35.8977C253.215 34.6705 254.075 34.0568 254.173 34.0568C254.557 34.0568 254.603 34.3309 254.316 34.875C254.03 35.5582 253.886 36 253.886 36.2045C253.886 36.6832 254.173 37.26 254.747 37.9432C255.51 38.7614 256.514 39.1705 257.759 39.1705C261.104 39.1705 263.973 37.4645 266.365 34.0568C266.555 33.7173 266.841 33.5455 267.226 33.5455C267.513 33.5455 267.656 33.6805 267.656 33.9545C267.656 34.0895 267.61 34.2614 267.513 34.4659V34.5682C267.415 34.8423 267.369 35.0468 267.369 35.1818C267.369 36.135 267.8 36.9205 268.66 37.5341ZM235.526 50.5227C236.289 50.5227 236.673 50.3877 236.673 50.1136C236.673 49.635 236.1 49.2259 234.952 48.8864C234.568 48.7514 234.046 48.6818 233.374 48.6818L230.936 48.8864C231.986 49.9786 233.518 50.5227 235.526 50.5227Z" fill="#FF6106"/>
    <path fill-rule="evenodd" clip-rule="evenodd" d="M113.173 24.6477V24.75C117.379 23.4532 122.594 22.2259 128.808 21.0682L117.62 18.9205C116.472 18.6464 115.709 18.5114 115.325 18.5114C114.94 18.5114 114.607 18.6464 114.32 18.9205C114.034 19.1946 113.506 19.26 112.743 19.125C110.448 19.125 107.866 19.0227 104.997 18.8182C104.521 18.7487 104.28 18.5809 104.28 18.3068C104.28 18.1718 104.326 17.9673 104.423 17.6932L106.288 15.0341C106.672 14.5555 107.103 14.2855 107.579 14.2159C111.119 13.8764 113.89 13.7741 115.898 13.9091C120.391 15.0014 126.656 16.3964 134.689 18.1023C136.312 18.3764 139.089 18.6832 143.008 19.0227C146.927 19.3623 149.13 19.6037 149.606 19.7387C150.083 19.8082 150.18 20.0127 149.893 20.3523L148.172 22.8068C147.885 23.1464 147.501 23.3182 147.024 23.3182H138.992C136.312 23.3182 131.005 24.1691 123.07 25.875C121.16 26.2841 117.861 27.2046 113.173 28.6364C116.426 30.2727 118.05 32.3182 118.05 34.7727C118.05 35.7955 117.522 36.8509 116.472 37.9432C115.227 39.1705 113.89 39.7841 112.456 39.7841C110.832 39.7841 109.013 39.1705 107.005 37.9432C104.899 36.6464 103.517 35.0796 102.845 33.2387C100.361 37.6691 96.9644 39.8864 92.6612 39.8864C91.9899 39.8864 91.4678 39.8537 91.0834 39.7841C91.0834 42.7827 90.8424 45.0327 90.3662 46.5341C89.89 48.24 89.0294 49.5327 87.7843 50.4205C84.4393 52.8055 80.3714 54.8877 75.5921 56.6591C69.5676 58.9091 63.876 60.0341 58.5229 60.0341C50.8748 60.0341 45.6134 57.375 42.7447 52.0568C42.1709 51.0341 41.884 49.7046 41.884 48.0682C41.884 46.9759 42.0275 45.8877 42.3143 44.7955C42.6988 43.1591 43.175 41.76 43.7487 40.6023C43.9381 40.1932 44.179 39.9887 44.4659 39.9887C44.6553 39.9887 44.6553 40.2259 44.4659 40.7046C44.4659 40.8396 44.42 40.9787 44.3225 41.1137L43.7487 42.9546C43.3643 44.3168 43.175 45.3068 43.175 45.9205C43.175 48.1705 44.2249 50.2159 46.3306 52.0568C49.1019 54.5114 53.1698 55.7387 58.5229 55.7387C63.1129 55.7387 67.9439 54.9532 73.0102 53.3864C77.0264 52.1591 80.7558 50.5923 84.1984 48.6818C87.1647 47.0455 88.8859 45.8509 89.3622 45.1023C89.3622 42.6477 88.404 40.0582 86.4934 37.3296C86.109 36.7855 85.9196 36.3764 85.9196 36.1023C85.9196 35.8977 86.304 34.875 87.0671 33.0341C87.2565 32.6946 87.3999 32.5227 87.4975 32.5227C87.6868 32.5227 87.9737 32.76 88.3581 33.2387C88.8343 34.0568 89.2187 34.5682 89.5056 34.7727C90.1769 35.3168 91.2269 35.5909 92.6612 35.5909C95.53 35.5909 98.066 34.6377 100.263 32.7273C100.837 32.2487 101.841 31.0909 103.276 29.25C103.66 28.7714 104.09 28.5341 104.567 28.5341C104.756 28.5341 104.899 28.5668 104.997 28.6364V28.5341C104.997 27.5809 107.722 26.2841 113.173 24.6477ZM112.886 35.3864C113.46 35.3864 113.747 35.2841 113.747 35.0796C113.747 34.9446 113.649 34.7032 113.46 34.3637C112.312 33.2059 110.35 32.4532 107.579 32.1137H107.005C106.621 32.1137 106.431 32.1464 106.431 32.2159L106.718 32.625C108.726 34.4659 110.78 35.3864 112.886 35.3864Z" fill="#FF6106"/>
</svg>
